<svg id="Layer_1" data-name="Layer 1" xmlns="http://www.w3.org/2000/svg" viewBox="0 0 250 250"><defs><style>.cls-1{fill:#58595b;}</style></defs><title>.png</title><path class="cls-1" d="M29.13,165.68l-.45.21c8.48,17.83,19,32.22,33.73,44.45l.35.29,64-64.71,61.62,63.21.35-.33c12.74-11.64,25.15-25.75,34.06-42.48L223,166,126.69,73.37,29.47,165.29l-.14-.06-1.21-.53.56,1.19.45-.21-.2.46.44.19.3.13,97-91.72L222,166.44l.34-.36-.44-.23c-8.83,16.6-21.17,30.63-33.85,42.22l.34.37.36-.35-62-63.58-64.38,65.1.35.35.31-.38c-14.62-12.14-25-26.38-33.46-44.11l-.45.21-.2.46Z"/><polyline class="cls-1" points="16.81 68.78 236.72 68.75 236.72 67.75 16.81 67.78"/><path class="cls-1" d="M181.63,17.59v.5h6.1A21.51,21.51,0,0,0,193,15.89a10.34,10.34,0,0,1,5.06-1.34,7.79,7.79,0,0,1,3.67,1,7.87,7.87,0,0,0,3.47,1.13,12.3,12.3,0,0,0,3.91-1.19,12.62,12.62,0,0,1,4.57-1.11,7.73,7.73,0,0,1,3.92,1.1A34.58,34.58,0,0,0,221,17.41c1.95.83,4.33.85,6.83.85h.8v-.5h-.5c0,.67,0,1.26,0,1.8,0,1.08,0,2,0,3.09a1.73,1.73,0,0,0,.5,1.28c.44.43.92.62,1.24.93a2,2,0,0,1,.57,1.63,2.13,2.13,0,0,1-.37,1.33,3.09,3.09,0,0,1-1.37.89,3.62,3.62,0,0,0-.77.42,1.11,1.11,0,0,0-.47.9h0l-.11,11v0a1.87,1.87,0,0,0,.69,1.17c.49.42,1.08.71,1.51,1.08a1.6,1.6,0,0,1,.7,1.31,2.14,2.14,0,0,1-.35,1.33,4.61,4.61,0,0,1-1.38,1,2.7,2.7,0,0,0-.79.7,2.09,2.09,0,0,0-.35,1.21v.27c.05.56.06,1.38.06,2.2,0,1.64-.06,3.32-.06,3.32l.49,0v-.5c-5.36,0-37.13.29-44.38.29h-1.39l0,.5h.5a14.46,14.46,0,0,1,.41-3.55,8.65,8.65,0,0,0,.47-2.18V49a2.11,2.11,0,0,0-.66-1.42c-.54-.58-1.25-1.09-1.81-1.68a2.88,2.88,0,0,1-1-2,1.16,1.16,0,0,1,.24-.77,5.87,5.87,0,0,1,1.07-.93,2.44,2.44,0,0,0,1-1.69v-11h0a2,2,0,0,0-.69-1.28c-.52-.5-1.18-.91-1.69-1.36a2,2,0,0,1-.82-1.41v-.08a1.79,1.79,0,0,1,.41-1.1,5.55,5.55,0,0,1,1.43-1,3.23,3.23,0,0,0,.77-.63,1.68,1.68,0,0,0,.37-1.06c0-.55,0-2.37,0-3.43,0-.27,0-.49,0-.64l-.5,0,.49.09h0l-.49-.09v0l-.49-.08h0v.11c0,.12,0,.33,0,.59,0,1,0,2.84,0,3.43a.69.69,0,0,1-.28.56c-.3.28-.91.54-1.5,1a2.83,2.83,0,0,0-1.2,2.21v.13a2.48,2.48,0,0,0,.59,1.57,9.54,9.54,0,0,0,1.74,1.51,4.37,4.37,0,0,1,.65.59l.22.45.5,0h-.5V40.48h.5l-.5,0a1.29,1.29,0,0,1-.32.73,11.85,11.85,0,0,1-1.14,1,2.32,2.32,0,0,0-.84,1.81,4.52,4.52,0,0,0,1.87,3.33c.44.39.86.74,1.15,1a1.22,1.22,0,0,1,.4.75v0a7.9,7.9,0,0,1-.44,2,15.1,15.1,0,0,0-.44,3.78l0,.5h1.92c7.26,0,39-.28,44.38-.28h.48l0-.48s.07-1.69.07-3.36c0-.84,0-1.66-.07-2.29v-.18a1,1,0,0,1,.3-.79c.28-.29.88-.51,1.47-1a2.89,2.89,0,0,0,1.1-2.48,2.42,2.42,0,0,0-.53-1.55,6.65,6.65,0,0,0-1.6-1.28,3,3,0,0,1-.57-.46l-.2-.38-.49.06h.49L228.41,30h0l0-.06a1.45,1.45,0,0,1,.49-.29,5.58,5.58,0,0,0,1.55-.88,3,3,0,0,0,.91-2.31,3.42,3.42,0,0,0-.43-1.8,4,4,0,0,0-1.36-1.21l-.39-.35a.82.82,0,0,1-.12-.48c0-1.13,0-2,0-3.09,0-.53,0-1.1,0-1.77v-.51h-1.31c-2.49,0-4.77-.05-6.44-.78a34.4,34.4,0,0,1-3.23-1.86,8.69,8.69,0,0,0-4.4-1.22,13.63,13.63,0,0,0-4.94,1.18,12,12,0,0,1-3.54,1.11,6.78,6.78,0,0,1-3-1,8.84,8.84,0,0,0-4.11-1.13A11.49,11.49,0,0,0,192.59,15a20.14,20.14,0,0,1-5.09,2.11l.12.48V17.1h-6.41l-.07.41Z"/><path class="cls-1" d="M186,17.78s0,2.7,0,6.52,0,8.76,0,13.21,0,8.44,0,10.34v.5h18.3c4.56,0,9.17,0,12.74,0s6.07,0,6.54-.07l.45,0v-.45c0-6.49,0-30.2,0-30.2h-1s0,5.92,0,12.66,0,14.29,0,17.53h.49l0-.5c-.33,0-2.9.06-6.45.07s-8.18,0-12.74,0H186.5v.5h.5c0-1.92,0-5.9,0-10.36,0-8.91,0-19.74,0-19.74Z"/><polyline class="cls-1" points="204.56 16.27 204.56 47.93 205.55 47.93 205.55 16.27"/><path class="cls-1" d="M205.61,44c1.56.07,4.43,1.12,7.22,2,3.6,1.09,7.43.32,10.26.89.89.18-17.48.32-17.48.32.08-3.54,0-3.18,0-3.18"/><path class="cls-1" d="M205.61,44l0,.49c1.4,0,4.3,1.1,7.09,1.95,3.76,1.13,7.64.35,10.31.91l.07-.36-.14.34.07,0,.07-.36-.14.34.18-.44-.3.37.12.07.18-.44-.3.37.31-.39h-.49a.52.52,0,0,0,.18.39l.31-.39h0l-.38-.3-.11.3h.49l-.38-.3.37.3-.18-.45-.19.15.37.3-.18-.45.13.33-.06-.35-.07,0,.13.33-.06-.35-.94,0c-1.87.07-6,.13-9.63.17l-6.81.07v.49h.5c0-1.18,0-1.93,0-2.41s0-.56,0-.69V44l0-.12-.08-.14a.47.47,0,0,0-.39-.19l-.32.11-.16.25v.62l.47,0,0-.49h0l.49.09-.45-.09.43.15,0-.06-.45-.09.43.15-.45-.15.41.25,0-.1-.45-.15.41.25-.42-.26.31.38.11-.12-.42-.26.31.38-.31-.38v.49l.31-.11-.31-.38v0l-.39.3a.47.47,0,0,0,.39.19V44l-.39.3.37-.29-.46.11.09.18.37-.29-.46.11.27-.06-.27,0v0l.27-.06-.27,0s0,.21,0,.7,0,1.21,0,2.39v.51h.51s4.37,0,8.75-.09c2.19,0,4.38-.06,6-.1l2-.06.57,0,.19,0,.11,0,.12-.05.13-.12.1-.31a.52.52,0,0,0-.18-.39l-.25-.11c-3-.58-6.76.18-10.21-.88-2.78-.84-5.61-1.9-7.33-2l0,.5h0Z"/><path class="cls-1" d="M203,48.72c0-.79.93-1.44,2.07-1.44s2.06.65,2.06,1.44-.92,1.43-2.06,1.43S203,49.51,203,48.72"/><path class="cls-1" d="M203,48.72h.5a.78.78,0,0,1,.39-.61,2.14,2.14,0,0,1,1.18-.33,2.11,2.11,0,0,1,1.17.33.78.78,0,0,1,.39.61.77.77,0,0,1-.39.6,2.11,2.11,0,0,1-1.17.33,2,2,0,0,1-1.18-.33.77.77,0,0,1-.39-.6h-1a1.79,1.79,0,0,0,.82,1.42,3.24,3.24,0,0,0,3.49,0,1.79,1.79,0,0,0,.82-1.42,1.77,1.77,0,0,0-.82-1.42,3.24,3.24,0,0,0-3.49,0,1.79,1.79,0,0,0-.82,1.42Z"/><path class="cls-1" d="M204,44c-1.56.07-4.42,1.12-7.21,2-3.61,1.09-7.43.32-10.26.89-.89.18,17.47.32,17.47.32C204,43.67,204,44,204,44"/><path class="cls-1" d="M204,44l0-.5c-1.72.09-4.55,1.15-7.33,2-3.46,1.06-7.23.3-10.22.88l-.11,0-.13.07a.52.52,0,0,0-.19.39l.11.31.2.16.22.05c.41,0,1.64.08,3.35.12,5.09.1,14.12.17,14.12.17h.51V47.2c0-1.18,0-1.92,0-2.39s0-.54,0-.64v-.05l-.39-.06.37.13,0-.07-.39-.06.37.13L204,44l.38.29.07-.13L204,44l.38.29L204,44v.49a.51.51,0,0,0,.39-.19L204,44v0l-.31.39.31.1V44l-.31.39L204,44l-.46.15.16.23L204,44l-.46.15L204,44l-.44.1v0L204,44l-.44.1v0L204,44l0-.5,0,.5.47-.16h0L204,44l.49-.11,0-.07-.06-.11-.11-.12-.3-.1a.52.52,0,0,0-.4.19l-.09.2,0,.29c0,.13,0,.32,0,.61,0,.48,0,1.23,0,2.41H204v-.49l-8.75-.09c-2.19,0-4.38-.06-6-.1l-2-.06-.53,0h-.11l0,.24.07-.23h0l0,.24.07-.23-.14.43.25-.38-.11-.05-.14.43.25-.38-.26.41.38-.3-.12-.11-.26.41.38-.3-.39.3h.5l-.11-.3-.39.3h0l.31.39a.52.52,0,0,0,.19-.39h-.5l.31.39-.27-.34.09.43.18-.09-.27-.34.09.43c2.67-.56,6.55.22,10.3-.91,2.79-.85,5.7-1.9,7.1-1.95l.65,0-.21-.62Z"/><path class="cls-1" d="M82.16,57.78l-.48.12A5.58,5.58,0,0,0,83.61,61a6,6,0,0,0,3.76,1.16c5.56,0,10.73-4,13.82-6.25h0a16.76,16.76,0,0,0,3.45-3,7.17,7.17,0,0,0,1.66-4.73l-1-.15-.44,1.43.82.5h0c.19-.17,2.22-2,6.76-2a23.48,23.48,0,0,1,7.15,1.24,93.57,93.57,0,0,1,8.85,4.34c3.75,2,7.44,3.95,8.81,4.53h0c.87.37,2.89,1.64,5.79,2.79a30.76,30.76,0,0,0,11.45,2.22,32.1,32.1,0,0,0,5.68-.51l-.08-.49.06.5a22.55,22.55,0,0,0,7.87-3A16,16,0,0,0,176,45.35a25.57,25.57,0,0,0-.63-5.5c-1.51-7-2-10.68-2-13.16a20.81,20.81,0,0,1,1.08-6l.1-.39-.36-.18-.33-.1a9.62,9.62,0,0,0-2.1-.22,8.84,8.84,0,0,0-6.13,2.29c-2,1.87-3.47,5.14-3.46,10.63v.61h.5l-.05-.49a11.18,11.18,0,0,0-5.81,2.26,7.83,7.83,0,0,0-2.92,6.35,15.09,15.09,0,0,0,1.33,5.82l.36.85.51-.76A15.84,15.84,0,0,1,158.85,44a5.66,5.66,0,0,1,3.62-1.48,3.35,3.35,0,0,1,2.29,1.43A5.53,5.53,0,0,1,166,46.78v.38a4.59,4.59,0,0,1-2,4,9.41,9.41,0,0,1-5.36,1.4,16.68,16.68,0,0,1-2.75-.24,10.2,10.2,0,0,1-4.43-2.44c-1.62-1.29-3.4-2.92-5.56-4.49l-.29.41.21.44a1.89,1.89,0,0,0,.76-.82,8.89,8.89,0,0,0,.95-3.5,4.4,4.4,0,0,0-1.39-3.19A11.47,11.47,0,0,0,143.68,37l-.25.43.47.17a10.86,10.86,0,0,0,.92-3,2,2,0,0,0-.6-1.48,4.48,4.48,0,0,0-1.93-1,6.23,6.23,0,0,1-1.55-.56l-.28.41.4.29c.2-.28.24-.24.42-.51l.11-.42c0-.13,0-.28,0-.51s0-.73,0-1.07a6.6,6.6,0,0,0-.13-1.5,2.42,2.42,0,0,0-1.43-1.71,9,9,0,0,0-3.59-.52h-.72v.5l.49.08a10.58,10.58,0,0,0,.17-1.79,5,5,0,0,0-.62-2.59,3.8,3.8,0,0,0-1.94-1.61l-.05,0L129.22,20l-.06.49.09-.49a2.16,2.16,0,0,1-.87-.28c0-.05,0,0,0-.22s0-.28,0-.48A3.51,3.51,0,0,0,127,16.4a3.9,3.9,0,0,0-2.83-1.08,7.88,7.88,0,0,0-3.59,1l.25.43h.49a4,4,0,0,0-1.12-2.86,4.29,4.29,0,0,0-3.11-1.17,9.63,9.63,0,0,0-4,.63l0,0-1.82,1.46.31.39v-.5a3.77,3.77,0,0,1-2.28-.91,5,5,0,0,0-3.08-1.09A4.52,4.52,0,0,0,103,14a17.7,17.7,0,0,0-1.77,2.18l.39.31.21-.45A8.12,8.12,0,0,1,100,14.68a3.93,3.93,0,0,0-2.7-.95,2.33,2.33,0,0,0-1.88,1c-.38.51-.64,1.06-.87,1.31l.37.33L94.58,16A14,14,0,0,0,93,18.57a3.44,3.44,0,0,1-2,1.63l.16.46.44-.24-.86-1.5-.06-.24-.15-.58-.54.26c-1.09.55-2.2,2-3.46,4A81.85,81.85,0,0,0,81,33.4c-.79,1.91-1.46,3.72-1.94,5.23a13.92,13.92,0,0,0-.78,3.53,3.63,3.63,0,0,0,.57,2.13,8.42,8.42,0,0,0,1.69,1.44,2.49,2.49,0,0,1,.8,2.16,4.61,4.61,0,0,1-1.51,2.66c-.8.92-1.74,1.82-1.77,3.07A3.63,3.63,0,0,0,80,56.74a7.58,7.58,0,0,0,3.77,1v-.5l-.17-.47L82,57.31l-.29.1,0,.3v.1l0,.09.48-.12.49.06h0l-.49-.06.16.46L84,57.67l-.16-1a6.71,6.71,0,0,1-3.26-.82,2.61,2.61,0,0,1-1.45-2.27c0-.64.67-1.49,1.51-2.41a5.35,5.35,0,0,0,1.76-3.32,4,4,0,0,0-.56-2.26,6.65,6.65,0,0,0-1.71-1.49,2.2,2.2,0,0,1-.78-2,18.77,18.77,0,0,1,1.25-4.8A92,92,0,0,1,85.49,26.2a42.79,42.79,0,0,1,2.76-4.64,7.4,7.4,0,0,1,2.16-2.3l-.22-.45-.48.13.08.29,0,.07.91,1.61.21.36.39-.14a4.5,4.5,0,0,0,2.48-2,12.88,12.88,0,0,1,1.52-2.38h0c.37-.43.61-1,.92-1.35a1.33,1.33,0,0,1,1.09-.63,2.83,2.83,0,0,1,2.06.73,9,9,0,0,0,2,1.52l.36.17.24-.32a18.22,18.22,0,0,1,1.67-2.07,3.56,3.56,0,0,1,2.55-1,4.12,4.12,0,0,1,2.53.92,4.75,4.75,0,0,0,2.83,1.09h.17l1.92-1.55-.31-.38.23.44a8.83,8.83,0,0,1,3.49-.52,3.31,3.31,0,0,1,2.41.88,3,3,0,0,1,.83,2.16v.86l.75-.43.06,0a7,7,0,0,1,3-.84,3,3,0,0,1,2.14.8c1,1,1,1.48,1,1.95v.48a1.21,1.21,0,0,0,.38,1,2.78,2.78,0,0,0,1.34.52h0l4.32.57.07-.49-.19.46a2.85,2.85,0,0,1,1.46,1.19,4.09,4.09,0,0,1,.47,2.09,9.76,9.76,0,0,1-.15,1.62l-.1.6.6,0h.7c2.14,0,3.19.31,3.63.72a1.36,1.36,0,0,1,.42.75,5.65,5.65,0,0,1,.11,1.27c0,.32,0,.68,0,1.07a4.39,4.39,0,0,1,0,.44v0l.15,0-.13-.07,0,0,.15,0-.13-.07.13.07-.12-.09v0l.13.07-.12-.09-.11.11-.26.33-.3.41.42.29a11.89,11.89,0,0,0,2.44.89,2.51,2.51,0,0,1,.9.5,1,1,0,0,1,.31.78,10.82,10.82,0,0,1-.87,2.7l-.13.39.36.2a10.48,10.48,0,0,1,2.22,1.53,3.35,3.35,0,0,1,1.1,2.48,7.92,7.92,0,0,1-.41,2,6.27,6.27,0,0,1-.42,1,1.17,1.17,0,0,1-.32.41l-.75.36.68.49c2.1,1.52,3.87,3.14,5.52,4.46a11.2,11.2,0,0,0,4.89,2.64,17.43,17.43,0,0,0,2.91.25,10.33,10.33,0,0,0,5.93-1.58A5.56,5.56,0,0,0,167,47.16v-.44a6.45,6.45,0,0,0-1.45-3.4,4.27,4.27,0,0,0-3.06-1.8,6.59,6.59,0,0,0-4.26,1.71,17,17,0,0,0-3,3.53l.41.27.46-.19a14.19,14.19,0,0,1-1.26-5.44,6.82,6.82,0,0,1,2.55-5.57,10.23,10.23,0,0,1,5.29-2.06l.45,0v-.46c0-.2,0-.4,0-.59,0-5.33,1.42-8.27,3.16-9.91a7.79,7.79,0,0,1,5.44-2,9,9,0,0,1,1.44.11l.43.08.12,0h0l.06-.16-.07.16h0l.06-.16-.07.16.21-.45-.48-.12a21.08,21.08,0,0,0-1.11,6.28c0,2.62.53,6.38,2,13.38a24.83,24.83,0,0,1,.61,5.28,15,15,0,0,1-7.44,13.45,22.25,22.25,0,0,1-5.16,2.27c-.7.21-1.29.34-1.69.43l-.63.11h0a32.07,32.07,0,0,1-5.51.49A29.63,29.63,0,0,1,143.45,60c-2.84-1.13-4.74-2.34-5.77-2.78h0c-1.27-.54-5-2.54-8.73-4.5a92.84,92.84,0,0,0-9-4.4,24.49,24.49,0,0,0-7.46-1.3c-5.13,0-7.41,2.21-7.47,2.28l.35.35.47.15.45-1.43-.47-.15h-.5a6.15,6.15,0,0,1-1.44,4.1,15.65,15.65,0,0,1-3.26,2.8h0c-3.09,2.24-8.17,6.08-13.24,6.07a5,5,0,0,1-3.15-1,4.57,4.57,0,0,1-1.58-2.54l-.48.13.49.06Z"/><path class="cls-1" d="M90.38,42.67s3.86,1.49,3.86,2.29c0,1.09-2.5,2.3-4.16,3.73H88c.74-2.44,0-1.55,0-3.73a2.5,2.5,0,0,1,2.38-2.29"/><path class="cls-1" d="M90.38,42.67l-.18.47s1,.36,1.89.82a11.8,11.8,0,0,1,1.27.71l.35.3.05.06.13-.07h-.14V45l.13-.07h-.14a.88.88,0,0,1-.29.51c-.67.76-2.4,1.73-3.7,2.84l.32.38v-.5H88v.5l.47.14a6.1,6.1,0,0,0,.35-1.71,2.73,2.73,0,0,0-.18-.9A4.46,4.46,0,0,1,88.49,45a1.63,1.63,0,0,1,.74-1.35,2.28,2.28,0,0,1,1.15-.44v-.5l-.18.47.18-.47v-.49a3.15,3.15,0,0,0-1.73.62A2.64,2.64,0,0,0,87.5,45a5.05,5.05,0,0,0,.19,1.54,2.08,2.08,0,0,1,.14.62,5.2,5.2,0,0,1-.31,1.42l-.19.65h2.93l.14-.12c.8-.69,1.83-1.34,2.68-2a8.47,8.47,0,0,0,1.12-1A1.83,1.83,0,0,0,94.74,45a1,1,0,0,0-.29-.66,8.22,8.22,0,0,0-2.29-1.41c-.85-.39-1.6-.68-1.61-.68l-.08,0h-.09Z"/><path class="cls-1" d="M104.72,36.53a4.45,4.45,0,0,0,1.91-2.28,2,2,0,0,1,.69-.78,2.74,2.74,0,0,1,1.5-.33,6.28,6.28,0,0,1,3.14.94,6.84,6.84,0,0,0,3.4,1.06,5.78,5.78,0,0,0,2.67-.91,5.63,5.63,0,0,1,2.68-.81,3.84,3.84,0,0,1,2.62,1.46,5.5,5.5,0,0,1,1.4,3.62,5.16,5.16,0,0,1,0,.67l-.1.78.75-.25.16,0a8.27,8.27,0,0,1,2.05-.28,4.31,4.31,0,0,1,2.85.9c.8.68,1.43,1.87,1.44,4.08v.44l0,.72.68-.23a7.18,7.18,0,0,1,2.27-.45,2.31,2.31,0,0,1,1.57.5,3.72,3.72,0,0,1,1,2.17c.18.91.25,1.91.45,2.73h0a2.12,2.12,0,0,0,1.09,1.37c.7.38,1.45.52,2,.85s.85.74.87,2a7.36,7.36,0,0,1-.06.88l1,.12a7.43,7.43,0,0,0,.07-1,3.53,3.53,0,0,0-.64-2.25A4.36,4.36,0,0,0,139.92,51a3,3,0,0,1-.78-.4,1,1,0,0,1-.4-.61l-.48.13.48-.12c-.23-.92-.27-2.39-.69-3.68A3.92,3.92,0,0,0,137,44.59a3.3,3.3,0,0,0-2.22-.74,8.13,8.13,0,0,0-2.58.5l.15.47.5,0v-.48c0-2.39-.72-3.93-1.79-4.84a5.3,5.3,0,0,0-3.49-1.13,8.84,8.84,0,0,0-2.52.37l.16.47.49.06a7,7,0,0,0,0-.79,6.55,6.55,0,0,0-1.64-4.28,4.77,4.77,0,0,0-3.37-1.79,6.47,6.47,0,0,0-3.14.92,4.94,4.94,0,0,1-2.21.8,6,6,0,0,1-2.94-.94,7.1,7.1,0,0,0-3.6-1.06,3.75,3.75,0,0,0-2,.47,3.9,3.9,0,0,0-1.34,1.72,2.58,2.58,0,0,1-1.17,1.29l.43.9Z"/><path class="cls-1" d="M16.82,1s.31,67.16,0,66.85H236.73V1ZM74.21,44.76c0,3.08-3.06,2-2.86,4.44.14,1.79,0,5.58,0,5.58-5.92,0-43.13,0-45,0,.11-4-.06-3.5.07-5.45.11-1.57-3.42-2.54-3.42-5.19,0-1.82,2.12-1.72,2.31-3.44V29.79c-.11-1.44-3.31-2.15-3.2-4.2.13-2.43,3-2.12,3-3.75,0-.72.07-3.37,0-4.05h6c4.38-1,6-3.55,10.48-3.55,3.24,0,4.76,2.15,7.14,2.15,2,0,5.1-2.29,8.48-2.29s5.17,2.08,7.43,3c2,.86,4.65.82,7.44.82-.07,2,0,3.19,0,4.88s2.31,1,2.31,3.83-3,2.36-3,3.54l-.11,10.93C71.46,42.5,74.21,42.68,74.21,44.76ZM160.13,62.1c-12.43,2.2-20.38-3.5-22.65-4.47-2.64-1.11-14.84-8-17.69-8.88-8.6-2.76-12.91-.3-14.08.58-.46,3-2.66,4.62-4.81,6.15-3.09,2.22-8.22,6.16-13.53,6.16a5,5,0,0,1-5.21-3.86l1.64-.58c-2.42,0-5.21-1.18-5.21-3.58,0-1.9,3.27-3.51,3.27-5.73,0-3.76-3-2.22-3-5.73,0-3.69,7.89-21.67,11.38-23.35l.08.3.88,1.55c2.38-.86,2.28-2.6,3.8-4.28.6-.69,1-2.15,2.38-2.15,2.34,0,2.56,1.46,4.31,2.29,1-1.29,2-3.3,4.61-3.3s3.13,2,5.36,2l1.78-1.43a9.13,9.13,0,0,1,3.72-.58,3.45,3.45,0,0,1,3.74,3.54s3.62-2.13,5.83,0c2.47,2.38-.2,3.27,2.48,3.77l4.31.57c2,.79,2.56,2.62,2.08,5.45,5.8-.15,5.35,1.43,5.35,4.29,0,.9,0,.54-.44,1.15,1.08.75,3.86.61,3.86,2.58a10.38,10.38,0,0,1-.89,2.86c1.45.83,3.57,2,3.57,4.44,0,1-.68,3.52-1.42,3.88,4.26,3.08,7.11,6.5,10.2,7,6.09,1,11-1.14,10.7-6-.12-2-2.12-4.73-4-4.73-3,0-5.21,2.58-6.84,5-4-9.6,2.15-13.25,7-13.75-.3-15.47,10.86-13,11.3-12.75C172.77,25,171.83,26,174.86,40,179.1,59.49,160.13,62.1,160.13,62.1Zm70.58-17.54c0,3.08-3.07,2-2.87,4.44.15,1.79,0,5.59,0,5.59-5.91,0-43.93.35-45.79.28.11-4,.74-3.81.88-5.76.11-1.57-3.42-2.54-3.42-5.19,0-1.83,2.12-1.72,2.31-3.44V29.59c-.11-1.43-3.31-2.15-3.2-4.19.13-2.44,3-2.13,3-3.76,0-.71.08-3.36,0-4.05h6c4.38-1,6-3.54,10.48-3.54,3.24,0,4.76,2.15,7.14,2.15,2,0,5.09-2.29,8.48-2.29s5.17,2.07,7.43,3c2,.86,4.65.81,7.44.81-.08,2,0,3.2,0,4.88s2.3,1,2.3,3.84-3,2.36-3,3.54L227.81,41C228,42.31,230.71,42.49,230.71,44.56Z"/><path class="cls-1" d="M25.13,17.79v.5h6l.06,0a21.51,21.51,0,0,0,5.31-2.19,10.37,10.37,0,0,1,5.06-1.34,7.79,7.79,0,0,1,3.67,1,7.74,7.74,0,0,0,3.47,1.13,12.26,12.26,0,0,0,3.91-1.18,12.42,12.42,0,0,1,4.57-1.11,7.7,7.7,0,0,1,3.92,1.09,34.58,34.58,0,0,0,3.32,1.91h0c2,.83,4.35.85,6.86.86h.77V18l-.5,0c0,.68,0,1.26,0,1.8,0,1.08,0,2,0,3.1a1.77,1.77,0,0,0,.51,1.28c.43.43.91.61,1.23.93a2,2,0,0,1,.57,1.62A2.13,2.13,0,0,1,73.53,28a3,3,0,0,1-1.37.89,3.88,3.88,0,0,0-.77.42,1.18,1.18,0,0,0-.47.9h0l-.11,10.95v0a1.76,1.76,0,0,0,.68,1.17c.49.42,1.08.72,1.51,1.08a1.59,1.59,0,0,1,.7,1.32,2.11,2.11,0,0,1-.35,1.32,4.23,4.23,0,0,1-1.37,1,2.47,2.47,0,0,0-.79.7A2.05,2.05,0,0,0,70.84,49v.26c.05.57.07,1.38.07,2.2,0,1.64-.07,3.32-.07,3.32l.5,0v-.49H47.17c-10.21,0-19.9,0-20.79,0l0,.5h.5c0-1.1,0-1.87,0-2.44,0-.86,0-1.27,0-1.7s0-.68.06-1.28v-.11a2.09,2.09,0,0,0-.66-1.41c-.54-.58-1.26-1.09-1.81-1.69a2.84,2.84,0,0,1-.95-2,1.16,1.16,0,0,1,.24-.77,6.29,6.29,0,0,1,1.07-.92,2.44,2.44,0,0,0,1-1.69v-11a2,2,0,0,0-.69-1.28c-.52-.49-1.18-.9-1.69-1.36a2,2,0,0,1-.82-1.41v-.08a1.75,1.75,0,0,1,.4-1.09,5.33,5.33,0,0,1,1.43-1,3,3,0,0,0,.77-.63,1.62,1.62,0,0,0,.37-1.05c0-.56.05-2.38.05-3.44,0-.27,0-.48,0-.64l0-.47h-.47v1h0v-.5l-.49,0c0,.11,0,.32,0,.58,0,1,0,2.85,0,3.44a.7.7,0,0,1-.28.56c-.3.28-.91.53-1.5,1a2.79,2.79,0,0,0-1.2,2.2v.13a2.57,2.57,0,0,0,.59,1.58A9.87,9.87,0,0,0,24,28.78a4.37,4.37,0,0,1,.65.59l.22.45.5,0h-.5V40.67h.5l-.5-.05a1.15,1.15,0,0,1-.32.73,10.73,10.73,0,0,1-1.14.95,2.3,2.3,0,0,0-.84,1.81,4.54,4.54,0,0,0,1.87,3.34c.44.39.86.73,1.15,1a1.2,1.2,0,0,1,.4.74v0c-.05.62-.06,1-.06,1.35s0,.85,0,1.7c0,.56,0,1.32,0,2.41v.5h.49c1,0,10.6,0,20.83,0H71.82l0-.48s.07-1.69.07-3.36c0-.83,0-1.66-.07-2.28V49a1,1,0,0,1,.3-.79c.28-.29.88-.51,1.47-1a2.89,2.89,0,0,0,1.11-2.47,2.53,2.53,0,0,0-.54-1.56,6.65,6.65,0,0,0-1.6-1.28,3.33,3.33,0,0,1-.57-.45l-.2-.38-.49,0h.5l.11-10.93h0l0-.06a1.43,1.43,0,0,1,.5-.29A5.54,5.54,0,0,0,74,29a3,3,0,0,0,.91-2.31,3.38,3.38,0,0,0-.43-1.79,4.08,4.08,0,0,0-1.36-1.22l-.39-.35a.78.78,0,0,1-.12-.47c0-1.13,0-2,0-3.1,0-.53,0-1.1,0-1.76l0-.52H71.32c-2.5,0-4.79-.05-6.47-.77h0c-1.06-.45-2-1.2-3.23-1.86a8.56,8.56,0,0,0-4.4-1.23,13.84,13.84,0,0,0-4.94,1.18,11.44,11.44,0,0,1-3.54,1.11,6.78,6.78,0,0,1-3-1,8.73,8.73,0,0,0-4.11-1.12,11.27,11.27,0,0,0-5.51,1.45A20.6,20.6,0,0,1,31,17.3l.11.49v-.5h-6v.5Z"/><path class="cls-1" d="M29.51,18s0,2.7,0,6.52,0,8.76,0,13.21,0,8.44,0,10.34v.51H30s8.79,0,17.81,0l12.73,0c3.59,0,6.08,0,6.54-.08l.45,0V48c0-6.48,0-30.19,0-30.19h-1s0,5.93,0,12.66,0,14.29,0,17.53H67l0-.5c-.32,0-2.9.06-6.45.07s-8.18,0-12.73,0H30v.5h.5c0-1.92,0-5.9,0-10.36,0-8.91,0-19.73,0-19.73Z"/><polyline class="cls-1" points="48.06 16.46 48.06 48.12 49.05 48.12 49.05 16.46"/><path class="cls-1" d="M49.11,44.22c1.57.07,4.43,1.13,7.22,2,3.6,1.09,7.43.32,10.26.89.89.18-17.48.33-17.48.33.08-3.55,0-3.19,0-3.19"/><path class="cls-1" d="M49.11,44.22l0,.49c1.4.06,4.3,1.1,7.09,1.95,3.76,1.13,7.64.36,10.31.91l.07-.36-.13.34.06,0,.07-.36-.13.34.17-.44-.3.37.13.07.17-.44-.3.37.31-.38h-.49a.53.53,0,0,0,.18.38l.31-.38h0l-.38-.31-.11.31h.49l-.38-.31.38.3-.19-.44-.19.14.38.3-.19-.44.13.32-.06-.35-.07,0,.13.32-.06-.35a9.37,9.37,0,0,1-.94.05c-1.87.07-6,.13-9.63.17l-6.81.07v.5h.5c0-1.19,0-1.94,0-2.42s0-.56,0-.68v-.16l0-.12-.08-.14a.49.49,0,0,0-.39-.19l-.31.11-.17.24v.06l-.12.57.58,0,0-.49.49.1-.45-.09.43.15,0-.06-.45-.09.43.15-.45-.16.4.26,0-.1-.45-.16.4.26-.41-.27.31.39.1-.12-.41-.27.31.39-.31-.39v.5l.31-.11-.31-.39v0l-.39.31a.54.54,0,0,0,.39.19v-.5l-.39.31.37-.29-.46.11.09.18.37-.29-.46.11.28-.07-.28,0v0l.28-.07-.28,0s0,.2,0,.69,0,1.22,0,2.4v.51h.51s4.37,0,8.75-.09c2.19,0,4.38-.06,6-.1.83,0,1.51,0,2-.06l.57,0,.19,0,.11,0,.12-.06.13-.11.1-.31a.5.5,0,0,0-.18-.39l-.25-.11c-3-.59-6.76.17-10.21-.89-2.78-.83-5.61-1.9-7.33-2l0,.5.49.1Z"/><path class="cls-1" d="M46.47,48.91c0-.79.93-1.43,2.07-1.43s2.06.64,2.06,1.43-.92,1.43-2.06,1.43-2.07-.64-2.07-1.43"/><path class="cls-1" d="M46.47,48.91H47a.78.78,0,0,1,.39-.61A2.14,2.14,0,0,1,48.54,48a2.11,2.11,0,0,1,1.17.33.67.67,0,0,1,0,1.22,2.11,2.11,0,0,1-1.17.33,2.14,2.14,0,0,1-1.18-.33.78.78,0,0,1-.39-.61H46a1.76,1.76,0,0,0,.81,1.42,3.24,3.24,0,0,0,3.49,0,1.64,1.64,0,0,0,0-2.84,3.24,3.24,0,0,0-3.49,0A1.76,1.76,0,0,0,46,48.91Z"/><path class="cls-1" d="M47.52,44.22c-1.56.07-4.42,1.13-7.21,2-3.6,1.09-7.43.32-10.26.89-.89.18,17.47.33,17.47.33-.07-3.55,0-3.19,0-3.19"/><path class="cls-1" d="M47.52,44.22l0-.5c-1.72.09-4.55,1.16-7.33,2C36.71,46.77,33,46,30,46.6l-.11,0-.13.08a.48.48,0,0,0-.19.39l.11.31.2.15.22,0c.41,0,1.64.08,3.35.12,5.09.1,14.12.17,14.12.17H48V47.4c0-1.18,0-1.93,0-2.4s0-.54,0-.63v-.06l-.39-.06.37.13,0-.07-.39-.06.37.13-.45-.16.38.29.07-.13-.45-.16.38.29-.39-.3v.5a.52.52,0,0,0,.39-.2l-.39-.3v0l-.31.39.31.11v-.5l-.31.39.3-.38-.46.15.16.23.3-.38-.46.15.44-.14-.45.09v0l.44-.14-.45.09.08.4h.4v-.5l0-.5,0,.5v-.5h0v.5l.49-.1,0-.07-.05-.11-.11-.12-.31-.11a.47.47,0,0,0-.39.19l-.1.21,0,.28V45c0,.48,0,1.23,0,2.42h.49v-.5l-8.75-.09c-2.19,0-4.38-.06-6-.1l-2-.06-.53,0h-.11l0,.24.07-.23h0l0,.24.07-.23-.14.44.25-.39-.11,0-.14.44.25-.39-.26.41.38-.3-.12-.11-.26.41.38-.3L30,47.1h.5l-.11-.31L30,47.1h0l.31.38a.48.48,0,0,0,.19-.38H30l.31.38-.27-.34.09.43.18-.09-.27-.34.09.43c2.67-.55,6.55.22,10.31-.91,2.78-.85,5.69-1.89,7.09-1.95l0-1Z"/><path class="cls-1" d="M54.62,158.35h.49a17.64,17.64,0,0,1,5.48-12.72,19.22,19.22,0,0,1,26.46,0,17.52,17.52,0,0,1,0,25.44,19.22,19.22,0,0,1-26.46,0,17.62,17.62,0,0,1-5.48-12.72v-.49h-.49v.49h0v.5h0v-.5h-.5a18.59,18.59,0,0,0,5.78,13.44,20.23,20.23,0,0,0,27.84,0,18.52,18.52,0,0,0,0-26.88,20.23,20.23,0,0,0-27.84,0,18.62,18.62,0,0,0-5.78,13.44v.5h.5Z"/><path class="cls-1" d="M146.23,44.65c-2.44-2.68-4.74-5.61-6.52-7.9-.9-1.15-1.66-2.15-2.26-2.88-.29-.36-.55-.66-.76-.89a2.21,2.21,0,0,0-.61-.51h0a11.32,11.32,0,0,1-2.36-2.26c-3.37-3.7-9.65-10.45-21.44-11.1-.27,0-.58,0-.93,0a60.76,60.76,0,0,0-10.93,1.19,25.32,25.32,0,0,0-5.23,1.6A6.8,6.8,0,0,0,93.4,23a2.56,2.56,0,0,0-.88,1.53l1,.13a1.65,1.65,0,0,1,.57-.93c1.24-1.18,4.55-2.17,8-2.77a59.66,59.66,0,0,1,9.25-.89l.87,0a27,27,0,0,1,16.42,6.49A44.48,44.48,0,0,1,133,30.88a11,11,0,0,0,2.71,2.51h0l.07-.15-.09.15h0l.07-.15-.09.15a2,2,0,0,1,.35.34c1.41,1.54,5.23,6.93,9.48,11.6l.73-.67Z"/><path class="cls-1" d="M106.39,49.23a7.31,7.31,0,0,0,.1-1.26l-.16-.43a1,1,0,0,0-.51-.29,9.75,9.75,0,0,0-2.29-.18l-1.18,0a3.89,3.89,0,0,1-.7-.08h0l-.09.29.21-.22-.12-.07-.09.29.21-.22-.29.31h.42l-.13-.31-.29.31h.1l.25.23a.36.36,0,0,0,.07-.23h-.32l.25.23a3.87,3.87,0,0,1,.62-.39l.4-.22.17-.11.1-.09a.55.55,0,0,0,.14-.36l-.13-.34-.27-.16h-.14v.49l.18.47a29.07,29.07,0,0,0,4-1.87,10,10,0,0,0,1.84-1.35,2.48,2.48,0,0,0,.87-1.68,1.67,1.67,0,0,0-.57-1.22c-1.88-1.82-3-3.74-4.14-5h0a7.75,7.75,0,0,0-6.17-2.59c-1.41,0-2.89,1.08-4.32,2.21s-2.73,2.4-3.43,2.89l.29.4.34.36a33.26,33.26,0,0,0,2.63-2.66,6.65,6.65,0,0,0,1.87-3.85A16.9,16.9,0,0,0,93.83,25a34.58,34.58,0,0,1-3-6.51l-1,.24a35.55,35.55,0,0,0,3,6.72,15.77,15.77,0,0,1,2.14,7.06,5.74,5.74,0,0,1-1.63,3.21,33.28,33.28,0,0,1-2.56,2.59l.63.76c.83-.59,2.11-1.82,3.48-2.93s2.84-2,3.7-2a6.73,6.73,0,0,1,5.44,2.28h0a59.77,59.77,0,0,0,4.18,5,.73.73,0,0,1,.27.51,1.53,1.53,0,0,1-.58,1,19,19,0,0,1-5.47,3l.18,1v-.4l-.14.37.14,0v-.4l-.14.37.17-.44-.36.31.19.13.17-.44-.36.31.36-.32h-.48l.12.32.36-.32h0l-.32-.32s-.11,0-.13.32h.45l-.32-.32.13.13-.11-.16,0,0,.13.13-.11-.16s-.4.23-.71.4l-.44.29-.2.19a.61.61,0,0,0-.16.41l.18.42.27.15h0a5.05,5.05,0,0,0,1.2.13c.7,0,1.55,0,2.21.05a4.62,4.62,0,0,1,.75.09l.08,0h0l.11-.19-.17.13.06.06.11-.19-.17.13.28-.2h-.34l.06.2.28-.2h-.34a6.36,6.36,0,0,1-.09,1.1l1,.16Z"/><path class="cls-1" d="M83.67,57.49c4.1,0,6.5-.28,8.56-1.34h0a30.47,30.47,0,0,0,4-2.47,9.55,9.55,0,0,0,3.11-3.36l-.91-.39a8.78,8.78,0,0,1-2.8,3,30.85,30.85,0,0,1-3.81,2.39h0c-1.81,1-4,1.24-8.1,1.24v1Z"/><path class="cls-1" d="M16.76,1V2H236.83V1h-1V111h0c-.73,44.24-25.79,78.09-52.42,100.93a203.5,203.5,0,0,1-38.18,25.83,128.41,128.41,0,0,1-14.5,6.51c-3.94,1.45-7,2.15-8.36,2.14h-.14a29.36,29.36,0,0,1-8-2.24c-13.08-5.1-37.3-18.9-58.15-41.17s-38.39-53-38.39-92.05v-.4c0-1.63,0-109.55,0-109.55V0h-1V2h0V1h-1s0,1.69,0,4.64c0,20.68,0,103.5,0,104.91v.41c0,45.36,23.28,79.61,48.13,102.53a186.76,186.76,0,0,0,35.83,25.92A120.13,120.13,0,0,0,113.54,246c3.85,1.49,6.75,2.29,8.63,2.36h.21c1.93,0,5-.78,9-2.26,14.18-5.18,40.36-19.24,63.26-41.87S237.16,150.4,237.81,111h0V0h-221V1Z"/><path class="cls-1" d="M126.69,74.05,29.57,165.87l-.44-.19c8.46,17.78,18.92,32.1,33.6,44.28l64-64.75,61.64,63.23c12.7-11.62,25.08-25.69,33.95-42.36ZM73.82,176.84c-10.61,0-19.2-8.27-19.2-18.49s8.59-18.5,19.2-18.5S93,148.14,93,158.35,84.42,176.84,73.82,176.84Zm52.78-44.42c-10.6,0-19.19-8.28-19.19-18.49s8.59-18.5,19.19-18.5,19.2,8.28,19.2,18.5S137.21,132.42,126.6,132.42Zm49.81,44.42c-10.61,0-19.2-8.27-19.2-18.49s8.59-18.5,19.2-18.5,19.2,8.29,19.2,18.5S187,176.84,176.41,176.84Z"/></svg>