<svg id="Layer_1" data-name="Layer 1" xmlns="http://www.w3.org/2000/svg" viewBox="0 0 250 250"><defs><style>.cls-1{fill:#58595b;}</style></defs><title>.png</title><path class="cls-1" d="M246.26,0c-6.94,0-18.14.52-20.27.52C225.8.52,214.6,0,205.53,0c-2.48,0-3.73.36-3.73,1.61s1.06,1.59,3,1.59a34,34,0,0,1,6.39.54c5.87,1.23,7.3,4.07,7.65,10.13.36,5.68.36,10.67.36,37.71V73.8c0,18.32-.53,34.32-10.32,44.1-7.12,7.12-16.72,9.61-24.55,9.61-6,0-14.23-.71-22.22-7.29-8.72-7.12-13.88-18-13.88-43.74V51.58c0-27,0-32,.35-37.71.36-6.22,1.79-9.25,6.59-10.13a26.38,26.38,0,0,1,5.15-.54c1.79,0,2.85-.36,2.85-1.59S162,0,159.29,0c-6.4,0-17.61.52-21.87.52l-34.18,0C98.42.54,88.61,0,84.87,0,82.91,0,82,.36,82,1.61c0,1.06.71,1.42,2.31,1.77C86.12,3.74,86.84,5,86.84,7c0,3-3.93,7.5-8.92,13.37C72.75,26.4,46.71,53,40.65,59.56h-.89V51.71c0-27.11,0-32.1.35-37.8.36-6.25,1.79-9.27,6.6-10.17a26,26,0,0,1,5-.52c1.43,0,2.5-.38,2.5-1.61S53,0,50.46,0c-6.07,0-17.3.54-21.58.54S13.37,0,3.91,0C1.25,0,0,.36,0,1.61S1.05,3.22,3,3.22a36.45,36.45,0,0,1,7,.52c5.9,1.25,7.32,4.11,7.67,10.17.36,5.7.36,10.69.36,37.8V83.09c0,16.4,0,30.49-.89,38-.71,5.18-1.6,9.1-5.17,9.81a29,29,0,0,1-6.42.71c-2.14,0-2.85.55-2.85,1.43,0,1.25,1.24,1.79,3.56,1.79,7.13,0,18.37-.54,22.47-.54,4.46,0,15.69.54,25.68.54,1.95,0,3.38-.54,3.38-1.79,0-.88-.89-1.43-2.32-1.43a74.5,74.5,0,0,1-8.73-.71c-4.45-.71-6.06-4.63-6.41-9.62-.54-7.67-.54-21.76-.54-38.16V66.87h.89l2,2.67,70.07,77.39c7.67,6.77,12.48,10.7,22.11,11.59,3.75.36,7,.36,12.3.36h15.52c3.39,0,4.28-.55,4.28-1.78,0-1.07-1.07-1.44-2.32-1.44-2.14,0-6.49-1.31-11.84-3.46-9-3.48-17.32-10.75-24.53-17.67l-20.74-22.48-51.14-55c6.07-6.41,32.85-33.31,38.52-38.51,9.2-8.43,17.11-14.8,22.64-14.8s7.3,4.07,7.65,10.13c.36,5.68.36,10.67.36,37.71v26c0,25.78,6.75,39,15.83,47.13,13,11.73,30,12.28,39.48,12.28,11.56,0,24.37-2,37-12.82,14.94-12.79,16.9-33.78,16.9-53.52v-19c0-27,0-32,.35-37.71.36-6.22,1.78-9.25,6.58-10.13a26.48,26.48,0,0,1,5.16-.54c2.14,0,3.21-.36,3.21-1.59S248.75,0,246.26,0Z"/><path class="cls-1" d="M230.18,126.83h0a4.79,4.79,0,1,0,4.72,4.79,4.76,4.76,0,0,0-4.72-4.79m0,8.83a4,4,0,0,1,0-8.08h0a4,4,0,0,1,0,8.08Z"/><path class="cls-1" d="M231,131.79v-.06a1.38,1.38,0,0,0,.56-2.39,2.93,2.93,0,0,0-1.66-.39,10.3,10.3,0,0,0-1.51.11v5.33h.85v-2.28h.6A1,1,0,0,1,231,133a3.6,3.6,0,0,0,.36,1.34h.89a4.43,4.43,0,0,1-.34-1.3c-.1-.79-.42-1.22-.89-1.29m-1.14-.36h-.62v-1.79a4.44,4.44,0,0,1,.62,0c1,0,1.3.47,1.3.94C231.19,131.19,230.59,131.43,229.89,131.43Z"/></svg>