<svg id="Layer_1" data-name="Layer 1" xmlns="http://www.w3.org/2000/svg" viewBox="0 0 250 250"><defs><style>.cls-1{fill:#58595b;}</style></defs><title>.png</title><path class="cls-1" d="M208.26,248.58a1.43,1.43,0,0,1-1.42,1.42h-169a1.43,1.43,0,0,1-1.42-1.42v-67a1.43,1.43,0,0,1,1.42-1.42H74.6A1.43,1.43,0,0,0,76,178.77V69.48a1.43,1.43,0,0,0-1.42-1.42H37.82a1.43,1.43,0,0,1-1.42-1.42V1.42A1.43,1.43,0,0,1,37.82,0h169a1.43,1.43,0,0,1,1.42,1.42V66.06a1.43,1.43,0,0,1-1.42,1.42H174.1a1.42,1.42,0,0,0-1.42,1.41V179.94a1.43,1.43,0,0,0,1.42,1.42h32.74a1.42,1.42,0,0,1,1.42,1.41ZM46.14,238.84a1.42,1.42,0,0,0,1.42,1.41H197.09a1.42,1.42,0,0,0,1.42-1.41V192.52a1.43,1.43,0,0,0-1.42-1.42H164.36a1.42,1.42,0,0,1-1.42-1.41V59.15a1.43,1.43,0,0,1,1.42-1.42h32.73a1.43,1.43,0,0,0,1.42-1.42V11.16a1.42,1.42,0,0,0-1.42-1.41H47.56a1.42,1.42,0,0,0-1.42,1.41V56.9a1.42,1.42,0,0,0,1.42,1.41H84.35a1.42,1.42,0,0,1,1.41,1.42V188.52a1.42,1.42,0,0,1-1.41,1.42H47.56a1.42,1.42,0,0,0-1.42,1.41Z"/></svg>