<svg id="Layer_1" data-name="Layer 1" xmlns="http://www.w3.org/2000/svg" viewBox="0 0 250 250"><defs><style>.cls-1{fill:#58595b;}</style></defs><path class="cls-1" d="M192.64,250V231.69c-25.67-3.9-41.12-12-41.37-79.11V88.77c0-63.14,11.09-67.45,36-72.4V0H82.37C74.3-.1,67.64,2.14,63.16,6.51a19.17,19.17,0,0,0-5.8,13.9,17.36,17.36,0,0,0,5.25,13.08,15.37,15.37,0,0,0,11.62,4.23c6.29-.46,13.14-5,14.07-12.79a10.87,10.87,0,0,0-2.21-8.54,9.82,9.82,0,0,0-6.84-3.54,9.09,9.09,0,0,0-8.11,3.52,7.08,7.08,0,0,0-1,6.84A3,3,0,1,0,75.77,21,1.09,1.09,0,0,1,76,20a3,3,0,0,1,2.76-1.07,3.73,3.73,0,0,1,2.58,1.33,5.1,5.1,0,0,1,.88,3.95c-.55,4.52-4.67,7.16-8.47,7.45a9.39,9.39,0,0,1-7-2.6,11.15,11.15,0,0,1-3.34-8.56,13.29,13.29,0,0,1,4-9.61C70.7,7.66,75.86,6,82.33,6.08h47.55v6.66h-33a3.7,3.7,0,1,0,0,7.39h33v5.94H98.79a3,3,0,1,0,0,6.09h31.09V219.81H77.1a3.39,3.39,0,0,0,0,6.78h52.78v8.14h-63a7.6,7.6,0,0,0-7.6,7.58l0,7.67H192.64Z"/><path class="cls-1" d="M105.53,208.21v-164a3.06,3.06,0,0,0-6.11,0v164a3.06,3.06,0,0,0,6.11,0Z"/><path class="cls-1" d="M121.36,207.75V44.94a4.06,4.06,0,1,0-8.12,0V207.75a4.06,4.06,0,1,0,8.12,0Z"/></svg>