<svg id="Layer_1" data-name="Layer 1" xmlns="http://www.w3.org/2000/svg" viewBox="0 0 250 250"><defs><style>.cls-1{fill:#58595b;fill-rule:evenodd;}</style></defs><path class="cls-1" d="M145.07,239.65l8.16,0c-1.94,1.11-5.52.71-8.16.71v-.76Zm-2.23-.74c.71-.71,2.37.94.87.41C143.69,239.32,141.83,239.92,142.84,238.91Zm-20.16-5.22c.07-.07.23.11.23.22s.09.09.09.09S121.68,234.69,122.68,233.69Zm-2.23-.74c.06-.07.22.11.22.22s.09.09.09.09S119.44,234,120.45,233Zm-2.24-.74c.72-.71,2.37.94.87.4C119.06,232.61,117.21,233.22,118.21,232.21Zm23.15-.74c.07-.06.23.11.23.23s.09.09.09.09S140.36,232.48,141.36,231.47Zm-25.38,0,1.5.36Zm21.59-.18-2.17.23C135.8,231.23,135.11,229.93,137.57,231.29ZM132.4,230c.72-.72,2.35.94.87.4C133.25,230.4,131.4,231,132.4,230Zm43.31-.74c.72-.71,2.35.94.87.4C176.56,229.66,174.71,230.27,175.71,229.26Zm-47,0c.72-.71,2.35.94.87.4C129.52,229.66,127.64,230.27,128.67,229.26Zm50-.74c.07-.06.23.12.23.23s.09.09.09.09S177.68,229.53,178.68,228.52Zm3-.73c.06-.07.22.11.22.22s.09.09.09.09S180.67,228.79,181.68,227.79Zm-58.24,0c.72-.72,2.37.93.87.4C124.29,228.19,122.44,228.79,123.44,227.79Zm53.75,0c1.34-.85.4-1.43,2.92-.21Zm3.73-1.5c.07-.07.22.11.22.22s.09.09.09.09S179.91,227.29,180.92,226.29Zm-61.21,0c.07-.07.22.11.22.22s.09.09.09.09S118.7,227.29,119.71,226.29Zm53.74,0c1.35-.85.41-1.43,2.93-.2Zm-56-.74,1.49.36Zm59.73-.74c.07-.06.22.12.22.23s.09.09.09.09S176.2,225.82,177.21,224.81Zm-37.39.2-2.17.65C138.7,224.75,136.25,224.86,139.82,225Zm-22.32.56-1.5-.73Zm17.16-1.49c.07-.07.22.11.22.22s.09.09.09.09S133.65,225.08,134.66,224.08Zm-18.66.73-1.5-.73Zm16.43-1.49c.06-.07.22.11.22.22s.09.09.09.09S131.42,224.32,132.43,223.32Zm-3-.74c.07-.07.22.11.22.22s.09.09.09.09S128.43,223.58,129.43,222.58Zm57.48-3c.06-.06.22.12.22.23s.09.09.09.09S185.9,220.59,186.91,219.58Zm1.49-.73c.07-.07.23.11.23.22s.09.09.09.09S187.4,219.85,188.4,218.85Zm1.5-.74c.07-.07.22.11.22.22s.09.09.09.09S188.9,219.12,189.9,218.11Zm3-.74-1.34.78Zm1.49-.74-1.49.74Zm0,0,.2-.69.56.43-.73.24Zm2.24-1.49-.2.69-.56-.42.74-.25Zm1.5-.74-1.5.74Zm1.49-.74-1.49.74Zm.74-.73-.74.73Zm0,0a7.43,7.43,0,0,1,4.47-3C203.33,212.21,203,212.28,200.36,212.93ZM116,231.61c-8.92-.78-29-16.25-33.59-23.15,2.17.58,12.41,10.28,15.82,12.55,3,2,5.64,3.62,8.68,5.52,2.86,1.79,6.79,3,9.11,5.08ZM204.83,210c1.41-2.16.78-1.65,3-2.23C206.42,209.89,207,209.37,204.83,210ZM82.39,208.46l-.74-.74Zm-.74-.74-.73-.74Zm-.73-.74-.74-.74Zm126.9.74,3-3C210.33,207.12,210,207.14,207.82,207.72Zm-36.58-2.24-.18.7-.56-.43.74-.24Zm-91.08.74-.7-.2.43-.56.24.74Zm91.08-.74,1.34-.78Zm39.58-.73.2-.7.56.43-.74.24ZM225,188.32c.07-.07.22.11.22.22s.09.09.09.09S224,189.33,225,188.32Zm2.23-2.23-.18.69-.55-.43.73-.24Zm.74-1.5-.74,1.5Zm0,0,1.5-2.24Zm2.24-3.73-.74,1.49Zm-165.73,0c.07-.07.22.11.22.22s.09.09.09.09S63.49,181.86,64.49,180.86ZM231,179.36l-.73,1.5Zm.74-1.5-.74,1.5Zm0,0,.36-1.49Zm1.5-3.73-.36,1.5Zm0,0,.36-1.5Zm.74-3c.06-.07.22.11.22.22s.09.09.09.09S232.94,172.14,234,171.14Zm.73-1.5c0-1.72.92-.13.47,0C235.15,169.64,234.68,171.56,234.68,169.64Zm.74-3c.07-.06.23.12.23.23s.08.09.08.09S234.42,167.65,235.42,166.64Zm1.5-4.49c0-1.72.92-.13.47,0C237.39,162.15,236.92,164.08,236.92,162.15Zm.74-3.73c.06-.07.22.11.22.22s.09.09.09.09S236.65,159.43,237.66,158.42Zm.64-3.71c.83.94.76-1.05.68,2.17Zm1-.83c-.17-1.6.76-17.11,1.12-17.81C241,140.79,241.5,150.26,239.35,153.88ZM178,203.25l-2.24.74c-.47,2.28-2.21,0-2.23,0-3.82,0-5.46,1.07-9,1.47-3.1.36-7.39.49-10.28.94-5,.76-15.91.89-19.57-1.65-7.09-.63-18.35-8.05-22.26-8.09.67,4,4.2,7.62,6.53,10.88-11.83,1.3-22-12.36-30.35-18.41l1.18,3.5c-3.51-.53-3.26-3.19-5.85-5l-1.21.79-3-3.07c.8,7.74,17.2,22.33,23.48,27.07,8.58,6.48,27,14.08,37.46,14.08,1.74-2.28,2,0,4.56.67.29.08,1.45.2,2,.29,10.06,1.81,18.86-1,26.33-1-4.09,2.83-10.93,2.59-16.36,3.17,5.65,2.64,14.14-1.57,20.09-1.68-9.16,6.37-37.37,3.6-51.24-1-3.09-1-12.38-5.27-14.39-5.49l2.92,2.79C102.41,221.28,86,205,78.88,195.61A97.55,97.55,0,0,1,67,175.34c-2.77-6.86-7-18.17-7-25.66l-2.23-.2c1,4.16,1.16,9.19,2.83,15.87,1.17,4.62,2.6,10.46,4.56,14.59-2.59-.65-4.62-7.15-5.67-9.74-.81-2-1.3-3.67-2-5.48-1-2.59-1.39-4-3.51-4.82-2.24,4-.34,9.81.89,13.43,9.79,28.78,32.29,55,60.83,64.62,12.45,4.2,17.52,4.94,30.91,4.94,18.57,0,41.81-5.09,57.18-14.48,22-13.47,36.52-41.34,40.69-66.86a103.52,103.52,0,0,0,0-33.05c-6.12-37.37-31.84-64.45-67.35-76-8.09-2.63-21.94-5.69-30.32-5.2-2-2.71-3.62-6.88-6.28-10.44-5.46-7.26-19.27-21-27.49-21.79,1.39,1.95,6.82,4.54,9.14,6.55,5.79,5,21,19.82,22.08,25.45-5.34.43-13.57-.6-17.72,1.43,6,.65,11.57-1.16,18.41-.35,2.33,2.05,1.32,2.1,3,3.48l-.65-3.48c2.34.31,4.42.38,6.66.71s4.13,1.21,6.75,1.48c-.43,2.52-1.41,1.54,6.88,4.65-4,.62-13.21-1.66-17.95-1.84-2.23-.09-14.83.29-15.48,4.34,4.31,3.1,26.37,1,34.84,5.23-3.42.38-6.22-.4-9.66-.54s-5.56-.87-9.72-.78c-3.37.07-15.28,1.34-17.07,3.57,6.84.76,10.06-.42,21.65.88,7.24.8,11.42.11,18.6,3.79,3.33,1.73,4.29,1,6.74,2.22,1.86.91,10.37,6,11.54,7.13,13.14,13.18,19.73,17.87,26.95,36.51,1.11,2.91,2.74,4.34,3.3,6.41l.92,15.83c-.8,5.2-.09,11-1.34,16.62-1.63,7.26-5.86,19-11,24.81.13,2.25-.07-.63.87,2.37-4.24,1.69-10.26,9-14.59,12.29-3.33,2.5-4,4.22-7.76,5.67-2.83,1.08-7.62,3.6-10.36,3.82Z"/><path class="cls-1" d="M66.7,147c.72-.71,2.35.94.87.4C67.55,147.4,65.7,148,66.7,147Zm-4.49-.74,2.19.12C61.94,147.72,63.08,146.82,62.21,146.26Zm0,0L60,146.15C62.48,144.81,61.34,145.71,62.21,146.26Zm-3.73-1.49c.07-.07.22.11.22.22s.09.09.09.09S57.47,145.77,58.48,144.77Zm-17.16-9L42,136l-.42.55-.25-.73Zm0,0-.7-.2.43-.56.24.73Zm-3-2.24.7.18-.43.56-.24-.74Zm0,0-.73-.74Zm-.73-.74-.7-.2.43-.56.24.74ZM22.66,114.91l.69.18-.42.56-.25-.74Zm0,0-.7-.2.43-.56.25.74Zm-1.5-2.23.69.18-.42.55-.25-.73Zm0,0-.78-1.34Zm-1.5-3c.07-.06.23.11.23.23s.09.09.09.09S18.66,110.69,19.66,109.68Zm-.73-1.49c.06-.07.22.11.22.22s.09.09.09.09S17.92,109.19,18.93,108.19Zm-.74-1.5c0-1.72.91-.14.47,0C18.66,106.69,18.19,108.63,18.19,106.69Zm-.74-2.24c.07-.06.22.12.22.23s.09.09.09.09S16.45,105.46,17.45,104.45ZM144.36,103l-.2.69-.56-.43.74-.24Zm-6-.74-.36,1.5Zm-121.68,0c.07-.07.23.11.23.22s.09.09.09.09S15.71,103.22,16.71,102.22Zm122.44-1.5-.74,1.5ZM29.41,88l-.12,2.19C28,87.76,28.85,88.9,29.41,88ZM10.55,74.64l.17,11.82C9.45,84.1,9.41,76.94,10.55,74.64ZM27.91,85c.07-.06.22.12.22.23s.09.09.09.09S26.9,86,27.91,85ZM4.76,63.38c0-1.72.91-.13.47,0C5.23,63.38,4.76,65.3,4.76,63.38Zm.74-3c.06-.07.22.11.22.22s.09.09.09.09-1.32.69-.31-.31Zm29.11-3-.2.69-.56-.42.74-.25ZM21.92,40.21l-.2.69-.56-.43.74-.24Zm0,0,.18-.7.56.43-.74.24Zm-6-.74c.07-.07.23.11.23.22s.09.09.09.09-1.32.69-.32-.31Zm2.24-2.24-.2.7-.56-.43.74-.24Zm.74-.73-.74.73Zm.73-1.5-.73,1.5Zm.74-.74-.74.74Zm.74-.74-.74.74Zm0,0c.6-2.19.09-1.56,2.23-3C22.77,32.72,23.28,32.09,21.14,33.52ZM24.87,29,24.8,30.4l-1.4.13L24.89,29Zm1.5-1.49L26.3,28.9,24.89,29l1.5-1.49Zm0,0c1.43-2.17,3.51-4.56,6-5.23C30.9,24.47,28.83,26.87,26.37,27.54Zm6-5.23a10.47,10.47,0,0,1,6-4.5A12.72,12.72,0,0,1,32.33,22.31Zm6-4.5.18-.69.56.43-.74.24ZM57.72,149.26l2.23.2c3.56,3.17,25.08,4,29.86,1.7h.74c11.1,1.32,35.93-13.83,44.49-25.34,10.77-14.46,19.71-31.29,19.71-50.51-.92,1.43-1.92,9.7-2.55,12.41-1.2,5.18-1.47,6.79-3.91,11.77l-2,.07-2,3.42c.32-3.62,2.37-7.67,3.18-11.76.91-4.62,2-8.44-.18-12.89-4.11,2.93-4.4,18.12-8.2,22.41.13-6.68,5.52-17.25,2.5-23.77-1.79,2.41-2.15,7.84-2.93,11.39a96.89,96.89,0,0,1-3.19,11c-4.38,12.51-16.34,23.46-28.2,29.3-10.87,5.34-18.06,4.4-21.86,7.26-7.64-2.08-9.61-1.12-11.13-1.28s-.94-.58-3.13-.8c-4.09.11-1.67,0-2.92-1-1.61,0-.25.2-.81-.74-2.08.81-6.75-1.16-9-2.32L56,128.41c-4.47-2.64-8.36-4.58-11.58-8.38-1.72-2-1.45-1.79-3.73-1.45-1-5.93-11.82-16.25-11.26-26,.16-2.73,1.85-2-.07-4.54,0-9,.23-20.71,3.73-28.38l2.24-2.23h-.74l.74-1.5.74-1.5,1.49-2.23a18.66,18.66,0,0,1,6.73-9l-.45-1.63c-4.94.33-5.38,2.39-9.11,3C36,36.61,46.93,30,53.14,25.1l-2.84-.8,6-3.42-1.5-.36,1.5-.4,1.47-2c-11,1.2-24.87,13.67-31.95,23C12.87,58.24,12.65,80.83,11.69,82.8l-.21-8.89C9,72,14.3,57.75,15.51,54.78c1.72-4.27,8.09-13.88,8.67-16l-1.41-.29c8.92-9.32,13.45-15.87,27.78-22.64a74.73,74.73,0,0,1,18.88-5.76C82.21,7.8,83.2,9.68,93.59,8.74c-4.65-2.61-16.76-2.37-22.53-1.5A67,67,0,0,1,63,8c3.73-2.1,15-2.43,17.29-5.07-4.2-4.85-22.72.63-28,2.75C30.21,14.64,15.62,27,6.48,49.46-1.86,70,1,106.62,14.28,121.15c6.88,7.51,9.85,11.24,18.7,17.14,6.35,4.22,17.54,10.52,24.78,11Z"/></svg>