<svg id="Layer_1" data-name="Layer 1" xmlns="http://www.w3.org/2000/svg" viewBox="0 0 250 250"><defs><style>.cls-1{fill:#58595b;}</style></defs><path class="cls-1" d="M249.49,50.86c4.52-25.45-25.11-38.78-25.11-38.78C204.32,2.47,183.84,10,183.84,10l-2.21.23-3.52-2.87c-9.7-6.49-16.64-3-16.64-3-1.88,1.64-2.77.44-2.77.44l-7.48-3.63c-10.15-4.64-18.07,5.61-18.07,5.61-2.2,3-4,1.43-4,1.43-2-1-7.61-1.54-7.61-1.54-23.23.78-29.52,15.86-29.52,15.86a2.4,2.4,0,0,1-1.44,2c-5.94,1.21-13.32,14.31-13.32,14.31-7.26,11.8-14.1,10-14.1,10-1,4.19,6.84,5.29,6.84,5.29,6.16.22,4.17,4.07,4.17,4.07C70.34,70.14,71.44,71,71.44,71c2.22-2.43,3.32-.11,3.32-.11,1,4.29-3.65,15.42-3.65,15.42.9.78,3.3-.66,3.3-.66,3.76.34,2,3.85,2,3.85a6.24,6.24,0,0,0-1.76,4.74c.78,1,4.19,0,4.19,0,4.18-1.75,4.73-.11,4.73-.11C84.79,97,81,98.35,81,98.35a12.68,12.68,0,0,0-6,1.54c-3.87,4.73,1.87,5.19,1.87,5.19l4.52.44c3.2.87.33,1.41.33,1.41a31.71,31.71,0,0,0-11.79,5.3c-1.77,2.54-1.87.44-1.87.44l-3.64-9.8c-2.31-5.73-4.41-2-4.41-2-3,4.53-4.29-2.74-4.29-2.74L49.42,84.57c-4-4.29-4.63.12-4.63.12l-.13,15.42c.33,3.54-1.31,1.21-1.31,1.21l-3.85-8.8c-1.33-3.53-2.31-.89-2.31-.89-1.21,4.2-3,.66-3,.66L29.15,83.7C25,77.3,22.64,80,22.64,80c-3.85,4.08,2.09,23.7,2.09,23.7,1.78,3.62-1.21,1.76-1.21,1.76L20,101.77c-4.41-3.86-3.41,4.19-3.41,4.19l2.86,5.73c1.32,1.54-.11,1.54-.11,1.54l-2.43.11c-1.67,3.5-4.62-.44-4.62-.44-3.75-4.41-7.06-3.2-7.06-3.2-2.64,5.73,6.38,16.64,6.38,16.64,2.66,3.19-1.21,3.63-1.21,3.63-1.77,0-1.31,1.33-1.31,1.33l4.85,6c1.43,1-.24,1.66-.24,1.66l-6,.11c0,3.3-3.64,2-3.64,2-2.64-1.21-4.18-.66-4.18-.66-.34,2.86,6.5,6.06,6.5,6.06,1.76,1.21.44,2.2.44,2.2l-1.33.56c2.65,3.85,9,6.05,9,6.05a1.53,1.53,0,0,1,1.21,2.1c-1.09.44-.89,1.21-.89,1.21l1.34,2,2.07.68,2.1,1.3c2.1,1.33.9,2.32.9,2.32-2.32,1.54-1.77,4.74-1.77,4.74-1.11,5.84,7.06,5.62,7.06,5.62l.1,1.87.33.88,2,3.08c2.22,1.77-2.31,4.2-2.31,4.2-6.38.33-13.11,3.57-15.83,5a1.21,1.21,0,0,0-.33,1.07.26.26,0,0,0,.11.1c4.27,2.07,6.91,1.52,6.91,1.52,4.18,0,3.19,2.64,3.19,2.64-1.76,3.52-5.95,1.75-5.95,1.75-7.16-3.51-10,6-10,6L5,215c7.52,13.34,26.69,7.73,26.69,7.73,3.3-1.66,4-.34,4-.34,24.9,6.28,47.26-6.39,47.26-6.39,2.86-1.54,4,.23,4,.23,8.38,5.28,13.21-12.35,13.21-12.35a11.62,11.62,0,0,1,1.44-4.51c1.87-3,2.64-1.1,2.64-1.1l3.54,3.08c3.08,3,4.84.88,4.84.88,1.77-3.31,4.63-.45,4.63-.45l4.39,3.31c5,2.1,5.07-.32,5.07-.32-.44-2.32,2.22-.33,2.22-.33,1.76,1.76,0,2.75,0,2.75-8.83,8.48-7.38,16.19-7.38,16.19,0,3.86,2.2,1.54,2.2,1.54,1.43-5.61,7.5-10.13,7.5-10.13,3.61-3.63,5.17-1.11,5.17-1.11,1.87,3.76,3.18,4.31,3.18,4.31,1.12.43,3.88,2,3.88,2,4.39,5.28,7.91,5.4,7.91,5.4,10.81.11,18.86-18.62,18.86-18.62a4.93,4.93,0,0,1,2.86-3.64c27.2-22.47,27.2-50.25,27.2-50.25-.1-5.83-3.64-7.48-3.64-7.48-1.54.11-3.72-2-3.72-2-5.2-9.7-16.53-8.92-16.53-8.92-16,.45-15.54,15.75-15.54,15.75,0,3.42-8.27,9.15-8.27,9.15l-.33,1.76-4.06,2.45c-.39.59-.77,1.17-1.15,1.77.3,6.43-3.49,9.22-3.49,9.22-1,1.66-1.32.67-1.32.67-.79-2-11.46-10.26-11.46-10.26s.88,1.1-.44,0,.11-2.31.11-2.31c4.74-7.26,21-19.5,21-19.5,6.61-5.73,25.78-17.63,25.78-17.63,11.46-5.83,11.56-15.43,11.56-15.43,0-8.36-10.45-7.6-10.45-7.6-2.54,0-.66,1.43-.66,1.43,2.26,2.58-2,1.7-2.59,1.56h-.5c-3.64-.11.32-3.31.32-3.31a4.85,4.85,0,0,0,3.21-4.42c-.11-4.62-6.83-4.39-6.83-4.39l-13.35-.12c-2.2,0-1.53-1-1.53-1,0-2.31,1.77-2.43,1.77-2.43l28.43-1.2c11-.56,31.6-9.26,31.6-9.26l21.38-8.81c-11.57-2.33-31.5-18-31.5-18v-1C232.43,41.06,249.49,50.86,249.49,50.86Zm-89.22,67.28s-1.18-1.55,1.74-1.88c0,0,11.2-1.77,13.45-3.14,0,0,8.87-4.24,4.12-7.54l.95-.73s4.91,1.87,1.36,6a26.54,26.54,0,0,1-16.25,6.67s-3.07-.77-2.63,2.86c0,0,.73,5.29-6,4.37l-.16-.89S164,122.26,160.27,118.14ZM65.76,154.38,67,156.1c-1.14,1.58-3.79,14.05-3.79,14.05l-1.4.17A32.7,32.7,0,0,1,65.76,154.38Zm-26,16.77s-15.79-.5-6-5c.57-.24,1.48.92,1.48.92s-1.8,1,1.24,1.83a26.64,26.64,0,0,0,6.13.56l1.57,1.08s-4.7,2.64,1.06,3.55l10.34.09-.16,1.48s-18.36,1.57-15-4.12Zm-5.52,16.62c-.27,0-5.34.27-2.2-5.69l1.76-1.53L37,184.19S39.28,187.87,34.21,187.77Zm16,2.55c3.22-.17,2.25,2.4,2.25,2.4-1.19,2-2.92.24-2.92.24C47.89,191.48,50.21,190.32,50.21,190.32Zm-9.33-6.09s.71-3.3,2.86-1.37c0,0,2.86,3-2.09,4.68C41.65,187.54,40.11,187.49,40.88,184.23Zm.9,7.34,1.73-1.75a13,13,0,0,1,4.13-1.72c.5.08-1.16,1.72-1.16,1.72-1.73,1-.72,2.23-.72,2.23l2.72,3c1.31,1.56,3.64.89,3.64.89a31.23,31.23,0,0,1,3.39-1.73,1.33,1.33,0,0,0,.28-.16c1.73-1-.36-3.06-.36-3.06l-3.23-3.3c-1.5-2.31.74-1.17.74-1.17,3.55,1.34,8.17,5.71,8.17,5.71,2.15,2.82-1,3.14-1,3.14l-9.91,3.8c-2.32,1.16-3.13-.33-3.13-.33L42.37,194C40.88,192.63,41.78,191.57,41.78,191.57Zm20-4.14,3.56-.42s.81,4.64.56,4.8a10.61,10.61,0,0,1-1.41.57A4.74,4.74,0,0,1,61.79,187.43Zm1.56-10.58-.5,7.86s-2.15.49-2.15.08.82-8.36.82-8.36ZM39,143.79c4,2.33,3,.08,3,.08l-.24-3.71c-.25-3.4,1.82-1.15,1.82-1.15l7,7c3.45,4.78,2.63-3.4,2.63-3.4.16-4.38,2.32-.91,2.32-.91l5.93,9.75c.35,1.65-1.64.25-1.64.25L56.09,146c-2-3.3-1.59,1.9-1.59,1.9.59,3.81-2.55,1.5-2.55,1.5l-6.19-5.8c-2.81-3.14-2.08,1.16-2.08,1.16.18,5.28-4.7.83-4.7.83C36.65,144,39,143.79,39,143.79Zm-5.3-2.06,3.57,6.87c1.65,3.63-2.58,2.47-2.58,2.47l-.17-1.42c1.35,1,.67-1.72.67-1.72s-3.64-5.44-3.55-5.87C32.12,139.51,33.68,141.73,33.68,141.73ZM28.82,159c-3.57-4.47,1.73-3.23,1.73-3.23,3.39.23,1.91-2,1.91-2l-2.58-3c-2-4.06,3.24-1.31,3.24-1.31L33,150.74l-1.34-.09c-1.32.17,2.5,3.14,2.5,3.14,3.06,3.89-2.5,2.81-2.5,2.81-3.22-.25-.58,2.08-.58,2.08l6.14,4.45c2.06,2.63-1.16,3.47-1.16,3.47L35,165.76c1.82-.72-.41-2.46-.41-2.46ZM16.31,190.24c.29-.25,7.93-2.65,7.93-2.65s5.68-1,3.53,1.22l-3.53,2.59S14.05,192.16,16.31,190.24ZM13,199a10,10,0,0,1,6.44,5s.92,1,1.1,1a12.34,12.34,0,0,0,1.31-1.26L20,200.44s-.45-1.38.94-1.5c0,0,1.32.12,1.92,2.79,0,0,.77,2.1,2.59,1.68,0,0,.78-.61-.29-2.89l-1.59-3.34s-.82-2.86,1.71-3.52l5.34-2.89s4.84-1.53,7.77-.16c0,0,.94,3.77-1,6.47l-2,2.53a.88.88,0,0,0-.06,1.65s.89,1.21,2.27-.56l2.53-4.07s.83-.22.92.06,0,6.67,0,6.67,1.74.44,2.33-1.71c0,0,.16-2.71,2.21-.39,0,0,1.09,2.75,5.18.6,0,0,11.85-5.06,18.89-5.06L71,195.36s-.6-1,4.31-.06c0,0,1.81-.21,1.65,2.16l.26,4.84s1.22,4.08,5.12,4.08v1.1S69,216.85,47.44,216.85c-.5,0-8,.66-13.17-2.59a18.48,18.48,0,0,1-11.18,2s-17-2.43-16.31-11.58C6.78,204.67,5.84,198.94,13,199Zm69.46,14.5s-23.8,14.42-46.94,6.06h-1.2s-18,6.83-26.45-4c0,0-1.1-1.88.42-1.54,0,0,10.71,8.71,26.68,3.19l1.22.33s21.81,7.07,46.93-6.83C83.13,210.73,85.23,211.61,82.47,213.49Zm2.79-54.57-7.37-14.71-2.63,3.55L75.34,159l-7.78-.16.33-36.79h7.63l-.26,14.22,9.33-14.13,8.26-.09L82.77,137.68l11.15,21.24Zm5.53-45s.07-.82-2.56-.65c0,0-4.64.08-4.64-3.14,0,0-.82-4.46,1.34-3.64l1,1.39-.17,2.39s1.15,1.58,7,1.25c0,0-.38,2.31,1.32,2.73.33.08-.09,2,6.69,1.5,0,0,1.91,1.13-1,1.88C99.78,117.59,92.61,118.76,90.79,113.88Zm4,36.11V122.06l7.51.09v27.67s.26,4.3,4.3,4.22c0,0,3.72.17,3.88-4.47l.18-27.42h7.42v28.42s-.81,9.42-11.88,9.09C106.25,159.66,95.66,160.49,94.84,150Zm23,39.75-1,.25c-3-1.17-3.64-7.52-3.64-7.52-.16-2.57-1.8-.09-1.8-.09l-5.05,9.6-1.56-.17c2.55-9.91,10-18.43,10-18.43l.15,8c.41,3.47,1.9,3.89,1.9,3.89,1.91-9.27,8.43-16.95,8.43-16.95l1.16,1.31C121,175.45,117.81,189.74,117.81,189.74Zm15.62,21s-6.7,4.79-7.86,7c0,0-1.89,1.65-1.48,0a16.4,16.4,0,0,1,6.28-8.77s2.88-2.39,4-.81C134.42,208.1,135.58,209.24,133.43,210.73Zm61.81-62.3s2.8-.33,2.8,3.31c0,0-.08,28.58-25.94,49.66,0,0-2.22-2.33-3.48,2.23,0,0-4.37,17-17.83,19.58,0,0-1.75-.17-.59-2,.6-1,15.62-6.69,17.44-21.9l.73-.76s14.64-10.23,16.78-22.95l.92-1.24S196.4,163.79,195.24,148.43Zm-49.43,27.5s1.82-8.33,4.23-10.39a2.29,2.29,0,0,1,2-1.17s8.53-1.49,15.72,3.23c0,0,1.55.66-.18,3.14L164,180.32s0,1.58-3.37.83c0,0-10.59-2.16-14.31-2C146.32,179.16,144.83,179.16,145.81,175.93ZM139.53,195s6.61,3.39,7.29-.42c0,0,1.74-1.33,2.05,1.4l.09,3.14s1.33,1.73,2.06-1.15c0,0,.92-3.47-1.48-5.29a2.22,2.22,0,0,0-2.72-.34s-1.32.75-1.26-1.64a21.81,21.81,0,0,0-4.29-8.36s14.88-1.15,19.67,1.9c0,0,4.79,2.82,4.79-1.24,0,0-.66-2.47,1.82-7.11l3.64-7.92s.73-1.57-1.31-2.72c0,0-7.37-3.8-13.48-3.72,0,0-3.05-.42-.5-2.65l2.89-2.4s1.58-1.23,5.37-1.07c0,0,4.21.33,1.82-1.66l-3.13-1.39s-1.4.73,0-5.72c0,0,1.9-10.48,13.72-10.25,0,0,10.32.83,15.19,9.27,0,0,2.66,10-.49,16.84,0,0-6,12.08-6.28,6,0,0,.16-1.66-.74-1.58,0,0-.67.42-.41,2.81,0,0-2.33,14-8.1,19.58,0,0-6.12,6.87-11.08,8.86,0,0-.5.39,0,2.39,0,0,0,9.42-11.49,16.28,0,0-6.7,5-12-.16,0,0-3.79-3.56-1.06-6.38l3-2.38s1.74-1.41.08-2.24c0,0-1-.17-2.22,1.32,0,0-1.83,3-4.13.59a2.44,2.44,0,0,1,.33-3.4s3.72-2.71,1.73-5.77l-2.32-4.05Zm-9,5.2c3.05,1.56,4.2.41,4.2.41,2.66-.82-.89-4.3-.89-4.3.15-2.47,2.55,1.16,2.55,1.16a4.62,4.62,0,0,1,.08,4.37c-1.07,2.07-4,2-4,2l-5-1.24c-3-.25-2.33-2.64-2.33-2.64C125.08,196.76,130.54,200.24,130.54,200.24Zm-1.91-94.18c-2.53-4.62-.87-15.33-.87-15.33-8.06,11-15.43,12.25-15.43,12.25-1.65-2.64-1.32-15-1.32-15l-1.55-.11C104,99.78,98.12,99.45,98.12,99.45L98,90.53c-6.94,8.92-12.58,8.38-12.58,8.38C85,94.27,89.3,86.34,89.3,86.34L88.42,86c-2.86,2.74-10.7,6.71-10.7,6.71l1.78-8.27c3.84-1.54,5.29-6.5,5.29-6.5l-1.33-.22a14.42,14.42,0,0,1-9.26,5.84c1.77-2.2,2.86-14.2,2.86-14.2,6.51-2,7.18-8.6,7.18-8.6l-1.44-.11c-1.1,4.07-8.15,6.72-8.15,6.72C73.33,65.08,78.94,51,78.94,51l-1.32-.22a9.84,9.84,0,0,1-8.26,1.65c-2.75-.54-.77-2-.77-2C75.32,48,86,30.05,86,30.05c2.55-4.09,6.84-1,6.84-1l1.32,1.22c2.09-.56.77-2.77.77-2.77-3.41-4.07,4-10.34,4-10.34,16.53-11.69,29.42-6.84,29.42-6.84,10.57,6.17,17.51,6.17,17.51,6.17,2.11-.33,1.67-2,1.67-2a18.41,18.41,0,0,1-12.12-4.4C132.82,5,145.6,2.82,145.6,2.82c6.38-.65,17.07,6.26,17.07,6.26,3.53,1.68,3.76.9,3.76.9,1.65-1.53-1.33-2.52-1.33-2.52-1.76-1.22-.56-1.68-.56-1.68,10.36-1.09,14.22,5.64,14.22,5.64-9,4.07-29.19,22.37-29.19,22.37C148,35,146.47,33,146.47,33a4,4,0,0,1-2.2-3.2c5-5.41,1.54-10,1.54-10-6.28-5.4-14,3.41-14,3.41l-10.58,9.14a6.69,6.69,0,0,1-6.41,1.22L112.67,33c.64,6.83,15.86,6.83,15.86,6.83,1.42,3.31,8,8.58,8,8.58l-.54.23c-20.49-9.59-34.92-7.39-34.92-7.39-10.37,2,.43,16.1.43,16.1l.31,6.46c19.27,23.91,52.36,27,52.36,27-.88,7.16-9.82,13.77-9.82,13.77-3.73-3.85-1.42-11.45-1.42-11.45l-1.1-.44C132.59,106.39,128.63,106.06,128.63,106.06Zm9.13-75.46c2.34,1.19.57,1.86.57,1.86-1.88,0-3.75,2.64-3.75,2.64-1.54,5.19,3.31,4.53,3.31,4.53,2.54.44,1,1.31,1,1.31-3.4,1.33.45,4.17.45,4.17,5.51,4.77,9.59,2,9.59,2,1.21-.33.88.77.88.77-3.75,3.84-9-.22-9-.22a18.41,18.41,0,0,1-10.47-13.23C130.73,28.82,137.76,30.6,137.76,30.6Zm-7.25-1.78,5.28-5.5a6.42,6.42,0,0,1,7.83-1.42c2.85,2.85-1.76,7.15-1.76,7.15C133.59,26.51,130.51,28.82,130.51,28.82Zm-2.43,5.74c-.54,2.64-2.52,2.64-2.52,2.64l-3.87-.54-.23-1.33,7.17-5.62C129.51,30.15,128.08,34.56,128.08,34.56Zm23,97A33.61,33.61,0,0,1,136,133.88l-.06-1.1c.51-.11,19-1.54,16.2-7.11,0,0-.7-1.38.12-1.54l2.21-.06S155.62,129.9,151.06,131.57Zm75.75-63.65-21.27-.86C204.32,67,212.6,62,212.6,62l-.22-1.09c-12.14-3.52-13.22-5.62-13.22-5.62,1.54-2.87,6.16-1.54,6.16-1.54Zm-21.49-5.6c-5.51,5-14.12,5.29-14.12,5.29l-22.13.88L169,68c3.31-3.42,21.71-9.69,21.71-9.69a4.74,4.74,0,0,1,5-.55Zm-20.28-5L159,68.82l-17,.23-12-2.64c-6.28-2-7.6-5.3-7.6-5.3-.9-2.54-5.29-6.94-5.29-6.94-5.18-3.64-5.73-.56-5.73-.56.32,7.39,16.2,15.32,16.2,15.32,6.71,3.53,19.83,3.64,19.83,3.64l25.78-1,23.67-1.43,17.41.12,13.79,1.09v.88L222.3,75.1C197.72,87.66,166,87.55,166,87.55c-45.5,0-61.47-24.45-61.47-24.45-1.55-2.21,2.42-.22,2.42-.22,7.27,5.5,12.44,6.5,12.44,6.5l1.56-1.77c-19.2-8.81-20.61-19.06-20.61-19.06C99.11,43.6,107,44.14,107,44.14c18.94.76,43.85,15.54,43.85,15.54l.89-1.21c-.67-2-7.94-5.84-7.94-5.84V51.42c5.07.77,6.73-1.22,6.73-1.22,6-3.74,1.32-11.13,1.32-11.13a2.17,2.17,0,0,1-.33-3.08C175.35,8.22,202,9.65,202,9.65c14-.57,27.2,7.61,27.2,7.61,20.61,12.12,18,30,18,30C227.12,36.43,185,57.37,185,57.37Z"/><path class="cls-1" d="M150.53,175.93s5.95.5,7.77,1.59a2.2,2.2,0,0,0,2.73-1.75l1.64-4.45a1.68,1.68,0,0,0-1.15-2.48s-4.86-2.33-9.51-1.41a2.72,2.72,0,0,0-2.31,2.22,28.48,28.48,0,0,0-.74,5S148.56,175.93,150.53,175.93Zm.49-4.36c1.91-3,7.12-1.08,7.12-1.08,3.31,1.25,1.57,3.06,1.57,3.06A2.16,2.16,0,0,1,157,175l-3.73-.91C150,173.88,151,171.57,151,171.57Z"/></svg>