<svg id="Layer_1" data-name="Layer 1" xmlns="http://www.w3.org/2000/svg" viewBox="0 0 250 250"><defs><style>.cls-1{fill:#58595b;}</style></defs><title>Resume-2020</title><path class="cls-1" d="M196.37,91c2.47-14-13.78-21.27-13.78-21.27-11-5.28-22.25-1.15-22.25-1.15l-1.21.12-1.93-1.57c-5.32-3.57-9.13-1.64-9.13-1.64-1,.91-1.52.24-1.52.24l-4.1-2c-5.57-2.54-9.92,3.08-9.92,3.08-1.2,1.63-2.18.79-2.18.79a18.51,18.51,0,0,0-4.17-.85c-12.75.43-16.2,8.71-16.2,8.71a1.32,1.32,0,0,1-.79,1.08c-3.26.67-7.31,7.86-7.31,7.86-4,6.47-7.74,5.51-7.74,5.51-.54,2.3,3.76,2.9,3.76,2.9,3.38.12,2.29,2.23,2.29,2.23-2.12,6.53-1.52,7-1.52,7,1.22-1.34,1.82-.06,1.82-.06.54,2.35-2,8.46-2,8.46.49.43,1.81-.36,1.81-.36,2.07.18,1.1,2.11,1.1,2.11a3.42,3.42,0,0,0-1,2.6c.43.55,2.3,0,2.3,0,2.3-1,2.6-.06,2.6-.06.66,1.58-1.4,2.3-1.4,2.3a6.87,6.87,0,0,0-3.31.85c-2.13,2.59,1,2.84,1,2.84l2.48.24c1.75.48.18.77.18.77a17.43,17.43,0,0,0-6.47,2.92c-1,1.39-1,.24-1,.24l-2-5.38c-1.27-3.14-2.42-1.09-2.42-1.09C90.76,120.94,90,117,90,117l-3.45-7.44c-2.18-2.36-2.54.06-2.54.06L84,118c.18,1.94-.72.66-.72.66l-2.11-4.83c-.73-1.94-1.27-.49-1.27-.49-.67,2.31-1.64.37-1.64.37L75.47,109C73.16,105.52,71.9,107,71.9,107,69.78,109.21,73,120,73,120c1,2-.66,1-.66,1l-1.93-2c-2.42-2.12-1.87,2.29-1.87,2.29l1.57,3.15c.72.84-.07.84-.07.84l-1.33.06c-.91,1.93-2.53-.24-2.53-.24-2.06-2.42-3.88-1.75-3.88-1.75-1.45,3.14,3.5,9.13,3.5,9.13,1.47,1.75-.66,2-.66,2-1,0-.72.73-.72.73l2.66,3.32c.78.55-.13.91-.13.91l-3.31.06c0,1.81-2,1.09-2,1.09a3.3,3.3,0,0,0-2.3-.37c-.18,1.57,3.57,3.33,3.57,3.33,1,.66.24,1.21.24,1.21l-.73.3c1.46,2.11,5,3.32,5,3.32a.84.84,0,0,1,.66,1.15c-.6.25-.49.67-.49.67l.73,1.09,1.14.37,1.15.71c1.16.73.5,1.27.5,1.27a2.73,2.73,0,0,0-1,2.6c-.61,3.21,3.87,3.09,3.87,3.09l.06,1,.17.48,1.09,1.69c1.22,1-1.26,2.3-1.26,2.3a22.81,22.81,0,0,0-8.69,2.76.65.65,0,0,0-.18.58.15.15,0,0,0,.06.06,6.51,6.51,0,0,0,3.79.83c2.29,0,1.75,1.45,1.75,1.45-1,1.93-3.26,1-3.26,1-3.93-1.93-5.5,3.28-5.5,3.28l.16,6.4c4.13,7.31,14.64,4.23,14.64,4.23,1.82-.9,2.18-.18,2.18-.18,13.67,3.45,25.94-3.51,25.94-3.51,1.57-.84,2.17.13,2.17.13,4.6,2.9,7.25-6.78,7.25-6.78a6.39,6.39,0,0,1,.79-2.47c1-1.63,1.45-.61,1.45-.61l1.94,1.69c1.69,1.63,2.66.49,2.66.49,1-1.82,2.54-.25,2.54-.25l2.41,1.82c2.72,1.15,2.78-.18,2.78-.18-.24-1.27,1.22-.18,1.22-.18,1,1,0,1.51,0,1.51-4.85,4.65-4.05,8.88-4.05,8.88,0,2.12,1.2.85,1.2.85.79-3.08,4.12-5.56,4.12-5.56,2-2,2.84-.61,2.84-.61,1,2.06,1.74,2.37,1.74,2.37.62.23,2.13,1.08,2.13,1.08,2.41,2.9,4.34,3,4.34,3,5.93.07,10.35-10.21,10.35-10.21a2.69,2.69,0,0,1,1.57-2C169.34,162.23,169.34,147,169.34,147c-.05-3.2-2-4.11-2-4.11-.85.06-2-1.09-2-1.09-2.85-5.32-9.07-4.89-9.07-4.89-8.76.24-8.52,8.64-8.52,8.64,0,1.88-4.54,5-4.54,5l-.18,1-2.23,1.34-.63,1a6,6,0,0,1-1.91,5.06c-.56.91-.73.37-.73.37-.43-1.09-6.28-5.63-6.28-5.63s.47.6-.25,0,.06-1.27.06-1.27c2.6-4,11.55-10.7,11.55-10.7,3.62-3.14,14.14-9.67,14.14-9.67,6.29-3.2,6.35-8.46,6.35-8.46,0-4.59-5.74-4.17-5.74-4.17-1.39,0-.36.78-.36.78,1.24,1.41-1.09.93-1.42.85h-.28c-2-.06.18-1.81.18-1.81a2.66,2.66,0,0,0,1.76-2.42c-.06-2.54-3.75-2.42-3.75-2.42l-7.32-.06c-1.21,0-.84-.54-.84-.54,0-1.27,1-1.34,1-1.34l15.6-.66c6-.31,17.34-5.08,17.34-5.08l11.73-4.83c-6.35-1.28-17.29-9.86-17.29-9.86v-.55C187,85.63,196.37,91,196.37,91Zm-49,36.92s-.65-.85,1-1c0,0,6.15-1,7.38-1.72,0,0,4.87-2.32,2.27-4.13l.52-.4a1.9,1.9,0,0,1,.74,3.29,14.57,14.57,0,0,1-8.91,3.66s-1.69-.43-1.44,1.57c0,0,.39,2.9-3.3,2.39l-.09-.49S149.43,130.19,147.41,127.93ZM95.55,147.81l.67.95c-.62.86-2.08,7.71-2.08,7.71l-.77.09A18,18,0,0,1,95.55,147.81ZM81.27,157s-8.66-.27-3.26-2.72c.3-.14.81.5.81.5s-1,.52.67,1a14.39,14.39,0,0,0,3.37.31l.86.6s-2.58,1.45.58,2l5.68,0-.09.81s-10.08.87-8.26-2.26Zm-3,9.12c-.14,0-2.93.15-1.2-3.12l1-.84,1.78,2S81,166.19,78.24,166.13Zm8.78,1.4c1.77-.09,1.24,1.32,1.24,1.32-.65,1.09-1.6.13-1.6.13C85.75,168.17,87,167.53,87,167.53Zm-5.11-3.34s.39-1.81,1.57-.75c0,0,1.56,1.66-1.16,2.57C82.32,166,81.48,166,81.91,164.19Zm.49,4,.95-1a7.15,7.15,0,0,1,2.26-.95c.28.05-.63.95-.63.95-1,.54-.4,1.22-.4,1.22l1.49,1.64a2.05,2.05,0,0,0,2,.49,16,16,0,0,1,1.86-1l.15-.08c1-.58-.19-1.68-.19-1.68l-1.77-1.82c-.83-1.26.4-.64.4-.64A18,18,0,0,1,93,168.57c1.18,1.55-.55,1.73-.55,1.73L87,172.38c-1.27.64-1.72-.18-1.72-.18l-2.58-2.67C81.91,168.8,82.4,168.22,82.4,168.22Zm11-2.27,2-.23a16.76,16.76,0,0,1,.31,2.63,6.47,6.47,0,0,1-.78.31A2.6,2.6,0,0,1,93.37,166Zm.86-5.81L94,164.45s-1.18.27-1.18.05.45-4.59.45-4.59ZM80.86,142c2.18,1.28,1.67.05,1.67.05l-.13-2c-.14-1.86,1-.63,1-.63l3.87,3.81c1.89,2.62,1.44-1.86,1.44-1.86.09-2.41,1.28-.5,1.28-.5l3.25,5.35c.19.9-.9.13-.9.13l-2.08-3.08c-1.1-1.81-.87,1-.87,1,.32,2.09-1.4.82-1.4.82l-3.4-3.18c-1.54-1.72-1.14.64-1.14.64.1,2.9-2.58.46-2.58.46C79.58,142.1,80.86,142,80.86,142ZM78,140.87l2,3.77c.91,2-1.42,1.36-1.42,1.36l-.09-.78c.74.55.37-.95.37-.95a28.27,28.27,0,0,1-2-3.22C77.1,139.65,78,140.87,78,140.87Zm-2.67,9.48c-2-2.45,1-1.77,1-1.77,1.86.13,1-1.09,1-1.09l-1.41-1.68c-1.09-2.22,1.78-.72,1.78-.72l-.05.72-.74,0c-.72.09,1.37,1.72,1.37,1.72,1.68,2.13-1.37,1.54-1.37,1.54-1.77-.14-.32,1.14-.32,1.14l3.37,2.44c1.13,1.45-.63,1.91-.63,1.91l-.6-.46c1-.4-.23-1.36-.23-1.36Zm-6.86,17.14c.16-.14,4.36-1.46,4.36-1.46s3.11-.57,1.93.67l-1.93,1.43S67.18,168.54,68.42,167.49Zm-1.81,4.8A5.51,5.51,0,0,1,70.15,175s.5.57.6.55a8.14,8.14,0,0,0,.72-.69l-1-1.82s-.24-.76.51-.82c0,0,.73.06,1.06,1.53,0,0,.42,1.15,1.42.92,0,0,.43-.33-.16-1.58l-.87-1.83s-.45-1.58.94-1.94l2.93-1.58s2.65-.84,4.26-.09a4.72,4.72,0,0,1-.57,3.55l-1.09,1.39a.48.48,0,0,0,0,.9s.49.67,1.24-.3L81.45,171s.46-.12.5,0,0,3.67,0,3.67,1,.24,1.28-.94c0,0,.09-1.49,1.22-.22,0,0,.59,1.51,2.84.34,0,0,6.5-2.78,10.36-2.78l.79-.79s-.33-.58,2.36,0c0,0,1-.12.9,1.18l.15,2.65a3.15,3.15,0,0,0,2.81,2.25v.6s-7.34,5.14-19.16,5.14c-.27,0-4.41.36-7.22-1.43a10.15,10.15,0,0,1-6.14,1.1s-9.34-1.34-9-6.35C63.19,175.41,62.68,172.26,66.61,172.29Zm38.11,8s-13,7.91-25.75,3.32h-.66s-9.86,3.75-14.51-2.18c0,0-.61-1,.23-.85,0,0,5.87,4.78,14.64,1.76l.66.18s12,3.88,25.76-3.75C105.09,178.73,106.24,179.22,104.72,180.25Zm1.53-29.94-4-8.08-1.44,2,0,6.17-4.27-.09.18-20.18h4.19l-.14,7.8,5.12-7.75,4.53,0-5.53,8.57L111,150.31Zm3-24.72s0-.45-1.41-.36c0,0-2.54,0-2.54-1.72,0,0-.45-2.45.73-2l.54.76-.09,1.31s.63.87,3.86.68c0,0-.21,1.27.72,1.5.18,0,0,1.1,3.67.82,0,0,1,.63-.55,1C114.22,127.63,110.28,128.27,109.29,125.59Zm2.22,19.81V130.08l4.12,0v15.18s.14,2.36,2.36,2.32c0,0,2,.09,2.13-2.45l.1-15.05h4.07v15.59s-.45,5.17-6.52,5C117.77,150.71,112,151.16,111.51,145.4Zm12.6,21.81-.54.14c-1.64-.64-2-4.13-2-4.13-.09-1.4-1-.05-1-.05l-2.77,5.27-.86-.09a28.56,28.56,0,0,1,5.49-10.11l.08,4.4c.23,1.9,1,2.13,1,2.13a23.83,23.83,0,0,1,4.62-9.3l.64.72C125.84,159.37,124.11,167.21,124.11,167.21Zm8.57,11.52s-3.67,2.63-4.31,3.82c0,0-1,.9-.81,0a9,9,0,0,1,3.44-4.82s1.59-1.31,2.23-.44C133.23,177.29,133.86,177.92,132.68,178.73Zm33.92-34.18s1.53-.18,1.53,1.81a38.13,38.13,0,0,1-14.23,27.25s-1.22-1.28-1.91,1.22c0,0-2.4,9.34-9.78,10.75,0,0-1-.09-.32-1.09.33-.52,8.57-3.67,9.56-12l.41-.41s8-5.61,9.2-12.59l.51-.69A19.86,19.86,0,0,0,166.6,144.55Zm-27.12,15.09s1-4.57,2.32-5.71a1.24,1.24,0,0,1,1.08-.63,13.09,13.09,0,0,1,8.62,1.77s.86.36-.09,1.72l-1.95,5.26s0,.86-1.85.45a54.66,54.66,0,0,0-7.85-1.09S138.94,161.41,139.48,159.64ZM136,170.12s3.63,1.86,4-.23c0,0,.95-.73,1.13.77l0,1.72s.73,1,1.14-.63a2.93,2.93,0,0,0-.82-2.9,1.22,1.22,0,0,0-1.49-.19s-.73.41-.69-.9a12.13,12.13,0,0,0-2.35-4.59s8.16-.62,10.79,1.05c0,0,2.63,1.55,2.63-.68,0,0-.37-1.36,1-3.9l2-4.35s.4-.86-.72-1.49c0,0-4-2.09-7.39-2.05,0,0-1.68-.22-.28-1.44L146.6,149a4.67,4.67,0,0,1,2.94-.59s2.32.18,1-.91l-1.72-.76s-.76.39,0-3.14a7.18,7.18,0,0,1,7.53-5.63s5.66.46,8.34,5.09c0,0,1.46,5.49-.27,9.24,0,0-3.26,6.63-3.45,3.27,0,0,.09-.91-.4-.86,0,0-.37.23-.23,1.54,0,0-1.28,7.71-4.44,10.74,0,0-3.36,3.77-6.08,4.87,0,0-.28.21,0,1.31,0,0,0,5.16-6.3,8.93,0,0-3.68,2.76-6.58-.09,0,0-2.08-1.95-.58-3.5l1.62-1.3s1-.78.05-1.24c0,0-.54-.09-1.22.73,0,0-1,1.63-2.27.32a1.33,1.33,0,0,1,.19-1.86s2-1.49,1-3.17l-1.28-2.22ZM131.1,173c1.67.86,2.3.23,2.3.23,1.46-.45-.49-2.36-.49-2.36.09-1.36,1.4.64,1.4.64a2.52,2.52,0,0,1,.05,2.4,2.61,2.61,0,0,1-2.22,1.09l-2.72-.68c-1.63-.14-1.28-1.45-1.28-1.45C128.1,171.07,131.1,173,131.1,173Zm-1-51.67c-1.39-2.53-.48-8.41-.48-8.41-4.42,6.06-8.46,6.72-8.46,6.72-.91-1.45-.73-8.22-.73-8.22l-.85-.07c-3,6.53-6.22,6.35-6.22,6.35l-.06-4.89c-3.81,4.89-6.9,4.59-6.9,4.59-.24-2.54,2.12-6.89,2.12-6.89l-.48-.18a34.35,34.35,0,0,1-5.87,3.69l1-4.54c2.11-.85,2.9-3.57,2.9-3.57l-.73-.12a7.9,7.9,0,0,1-5.07,3.21c1-1.21,1.56-7.79,1.56-7.79a5.78,5.78,0,0,0,3.94-4.73l-.78,0c-.61,2.23-4.48,3.68-4.48,3.68-.72-1.27,2.36-9,2.36-9l-.73-.11a5.4,5.4,0,0,1-4.53.9c-1.51-.3-.42-1.09-.42-1.09,3.69-1.33,9.55-11.18,9.55-11.18,1.39-2.24,3.75-.54,3.75-.54l.72.66c1.15-.3.42-1.51.42-1.51-1.87-2.24,2.18-5.68,2.18-5.68,9.07-6.41,16.14-3.75,16.14-3.75,5.8,3.39,9.61,3.39,9.61,3.39,1.15-.19.91-1.1.91-1.1a10.11,10.11,0,0,1-6.65-2.41c-1.39-2.79,5.62-4,5.62-4,3.5-.36,9.37,3.43,9.37,3.43,1.94.92,2.06.5,2.06.5.91-.85-.73-1.39-.73-1.39-1-.67-.31-.92-.31-.92,5.69-.6,7.81,3.09,7.81,3.09-4.95,2.24-16,12.28-16,12.28-.85.66-1.7-.43-1.7-.43a2.17,2.17,0,0,1-1.21-1.75c2.73-3,.85-5.5.85-5.5-3.45-3-7.67,1.87-7.67,1.87l-5.8,5a3.69,3.69,0,0,1-3.52.67l-1.2-.31C121.65,85,130,85,130,85c.77,1.82,4.4,4.71,4.4,4.71l-.3.12c-11.24-5.26-19.16-4-19.16-4-5.68,1.1.24,8.83.24,8.83l.17,3.55C125.93,111.25,144.08,113,144.08,113c-.48,3.93-5.39,7.56-5.39,7.56-2-2.11-.78-6.28-.78-6.28l-.6-.24C132.22,121.48,130.05,121.3,130.05,121.3Zm5-41.41c1.28.66.31,1,.31,1-1,0-2.05,1.45-2.05,1.45-.85,2.85,1.81,2.48,1.81,2.48,1.4.24.54.72.54.72-1.86.73.25,2.29.25,2.29,3,2.62,5.26,1.1,5.26,1.1.66-.18.48.42.48.42-2.06,2.11-4.95-.12-4.95-.12A10.07,10.07,0,0,1,131,82C131.21,78.92,135.06,79.89,135.06,79.89Zm-4-1,2.9-3a3.54,3.54,0,0,1,4.3-.78c1.56,1.56-1,3.93-1,3.93C132.77,77.65,131.08,78.92,131.08,78.92Zm-1.33,3.15c-.3,1.45-1.39,1.45-1.39,1.45l-2.12-.3-.12-.73,3.93-3.08C130.53,79.65,129.75,82.07,129.75,82.07Zm12.61,53.23a18.51,18.51,0,0,1-8.3,1.26l0-.6c.27-.06,10.43-.85,8.88-3.9,0,0-.38-.76.07-.85l1.21,0S144.86,134.38,142.36,135.3Zm41.56-34.93-11.67-.47c-.67-.06,3.87-2.78,3.87-2.78l-.12-.6c-6.66-1.94-7.25-3.09-7.25-3.09.84-1.57,3.38-.84,3.38-.84ZM172.13,97.3c-3,2.72-7.75,2.91-7.75,2.91l-12.14.48-.07-.25c1.82-1.88,11.91-5.32,11.91-5.32a2.61,2.61,0,0,1,2.73-.3ZM161,94.58l-14.27,6.29-9.31.12-6.58-1.45c-3.44-1.09-4.17-2.9-4.17-2.9-.49-1.4-2.9-3.81-2.9-3.81-2.84-2-3.15-.31-3.15-.31.18,4.06,8.89,8.41,8.89,8.41,3.68,1.93,10.88,2,10.88,2l14.15-.55,13-.79,9.55.07,7.56.6v.48l-3.2,1.57c-13.48,6.89-30.9,6.83-30.9,6.83-25,0-33.73-13.41-33.73-13.41-.84-1.21,1.33-.12,1.33-.12a18.72,18.72,0,0,0,6.83,3.57l.86-1c-10.54-4.84-11.31-10.46-11.31-10.46-.67-2.72,3.69-2.42,3.69-2.42,10.38.42,24,8.52,24,8.52l.49-.66C142.39,94.1,138.4,92,138.4,92v-.66c2.78.42,3.69-.67,3.69-.67,3.26-2.05.72-6.11.72-6.11a1.17,1.17,0,0,1-.18-1.68c13.06-15.24,27.69-14.46,27.69-14.46,7.68-.31,14.92,4.18,14.92,4.18C196.55,79.23,195.1,89,195.1,89,184.09,83.1,161,94.58,161,94.58Z"/><path class="cls-1" d="M142.07,159.64s3.26.27,4.26.87a1.21,1.21,0,0,0,1.5-1l.9-2.45a.91.91,0,0,0-.63-1.35,9.57,9.57,0,0,0-5.22-.78,1.5,1.5,0,0,0-1.27,1.22,16.55,16.55,0,0,0-.41,2.73S141,159.64,142.07,159.64Zm.27-2.4c1-1.63,3.9-.59,3.9-.59,1.82.69.86,1.68.86,1.68a1.18,1.18,0,0,1-1.49.77l-2.05-.5C141.8,158.51,142.34,157.24,142.34,157.24Z"/></svg>